<?xml version="1.0" encoding="UTF-8" standalone="no"?>
<!-- Created with Inkscape (http://www.inkscape.org/) -->

<svg
   version="1.1"
   id="svg25"
   xml:space="preserve"
   width="40.200001"
   height="40.200001"
   viewBox="0 0 40.2 40.2"
   sodipodi:docname="confort.svg"
   inkscape:version="1.1.2 (0a00cf5339, 2022-02-04)"
   xmlns:inkscape="http://www.inkscape.org/namespaces/inkscape"
   xmlns:sodipodi="http://sodipodi.sourceforge.net/DTD/sodipodi-0.dtd"
   xmlns="http://www.w3.org/2000/svg"
   xmlns:svg="http://www.w3.org/2000/svg"><defs
     id="defs29"><clipPath
       clipPathUnits="userSpaceOnUse"
       id="clipPath45"><path
         d="M 0,595.276 H 841.89 V 0 H 0 Z"
         id="path43" /></clipPath><clipPath
       clipPathUnits="userSpaceOnUse"
       id="clipPath241"><path
         d="m 233.362,206.336 h 35.135 v 27.959 h -35.135 z"
         id="path239" /></clipPath><clipPath
       clipPathUnits="userSpaceOnUse"
       id="clipPath249"><path
         d="M -32768,32767 H 32767 V -32768 H -32768 Z"
         id="path247" /></clipPath><clipPath
       clipPathUnits="userSpaceOnUse"
       id="clipPath301"><path
         d="m 420.945,197.333 h 40.073 v 40.074 h -40.073 z"
         id="path299" /></clipPath><clipPath
       clipPathUnits="userSpaceOnUse"
       id="clipPath337"><path
         d="m 613.024,366.5 h 40.074 v 40.074 h -40.074 z"
         id="path335" /></clipPath><clipPath
       clipPathUnits="userSpaceOnUse"
       id="clipPath381"><path
         d="m 610.266,191.855 h 40.073 v 40.074 h -40.073 z"
         id="path379" /></clipPath><clipPath
       clipPathUnits="userSpaceOnUse"
       id="clipPath425"><path
         d="m 44.833,193.325 h 44.081 v 44.082 H 44.833 Z"
         id="path423" /></clipPath><clipPath
       clipPathUnits="userSpaceOnUse"
       id="clipPath449"><path
         d="m 426.492,373.463 h 23.863 v 23.863 h -23.863 z"
         id="path447" /></clipPath><clipPath
       clipPathUnits="userSpaceOnUse"
       id="clipPath457"><path
         d="M -32768,32767 H 32767 V -32768 H -32768 Z"
         id="path455" /></clipPath><clipPath
       clipPathUnits="userSpaceOnUse"
       id="clipPath485"><path
         d="M 0,0 H 841.89 V 595.276 H 0 Z"
         id="path483" /></clipPath><clipPath
       clipPathUnits="userSpaceOnUse"
       id="clipPath381-7"><path
         d="m 610.266,191.855 h 40.073 v 40.074 h -40.073 z"
         id="path379-5" /></clipPath></defs><sodipodi:namedview
     id="namedview27"
     pagecolor="#ffffff"
     bordercolor="#666666"
     borderopacity="1.0"
     inkscape:pageshadow="2"
     inkscape:pageopacity="0.0"
     inkscape:pagecheckerboard="0"
     showgrid="false"
     width="42px"
     inkscape:zoom="1.0167552"
     inkscape:cx="74.255827"
     inkscape:cy="117.53075"
     inkscape:window-width="1850"
     inkscape:window-height="1016"
     inkscape:window-x="70"
     inkscape:window-y="27"
     inkscape:window-maximized="1"
     inkscape:current-layer="g31" /><g
     id="g31"
     inkscape:groupmode="layer"
     inkscape:label="Hallura_brochure_a4_H"
     transform="matrix(1.3333333,0,0,-1.3333333,-622.15117,400.77708)"><g
       id="g375"
       transform="translate(-148.16723,73.590617)"><g
         id="g377"
         clip-path="url(#clipPath381-7)"><g
           id="g383"
           transform="translate(623.2196,203.1951)"><path
             d="m 0,0 v 0.008 c -0.064,1.708 -0.866,3.084 -1.492,4.602 -0.7,1.695 -1.215,3.541 -0.588,6.048 0.516,2.061 2.073,3.547 3.736,5.141 1.502,1.439 3.088,2.984 3.827,5.315 0.061,0.193 0.212,0.344 0.404,0.406 0.192,0.063 0.403,0.028 0.565,-0.092 1.591,-1.18 2.609,-3.866 2.126,-6.419 C 8.38,13.966 8.309,13.47 8.358,13.105 8.406,12.753 8.569,12.535 8.783,12.041 8.918,11.727 9.251,11.294 9.582,10.815 9.976,10.244 10.369,9.618 10.557,9.04 10.721,8.535 10.735,8.054 10.567,7.637 10.436,7.314 10.195,7.011 9.785,6.771 9.793,6.504 9.793,6.157 9.761,5.853 9.724,5.503 9.628,5.2 9.512,5.028 9.512,5.028 9.446,4.922 9.445,4.922 9.726,4.295 9.665,3.469 9.159,2.895 9.177,2.795 9.215,2.579 9.243,2.43 9.318,2.023 9.35,1.56 9.17,1.079 8.998,0.616 8.629,0.117 7.836,-0.341 7.116,-0.757 6.125,-0.86 5.026,-0.814 3.609,-0.756 1.994,-0.46 0.687,-0.591 H 0.686 c -0.02,-0.002 -0.041,-0.003 -0.061,-0.003 -0.011,0 -0.021,0 -0.032,0.001 l -0.031,0.002 -0.03,0.004 -0.03,0.005 -0.03,0.007 -0.027,0.007 -0.029,0.01 H 0.415 L 0.389,-0.548 0.387,-0.547 0.362,-0.536 0.36,-0.535 0.335,-0.523 0.333,-0.522 0.31,-0.509 0.307,-0.508 0.295,-0.5 0.285,-0.494 0.282,-0.492 0.271,-0.484 0.261,-0.477 0.258,-0.475 0.248,-0.468 0.238,-0.46 0.235,-0.458 0.225,-0.45 0.215,-0.441 0.212,-0.439 0.203,-0.43 0.194,-0.422 0.191,-0.419 0.182,-0.41 0.173,-0.401 0.17,-0.398 0.162,-0.389 0.153,-0.38 0.15,-0.376 0.143,-0.367 0.135,-0.358 0.132,-0.354 0.125,-0.344 0.117,-0.334 0.114,-0.33 0.108,-0.32 0.101,-0.31 0.098,-0.306 0.092,-0.296 0.085,-0.285 0.082,-0.281 0.077,-0.27 0.071,-0.26 0.068,-0.255 0.063,-0.244 0.058,-0.233 0.055,-0.228 0.05,-0.217 0.046,-0.206 0.044,-0.2 0.039,-0.189 0.035,-0.178 0.033,-0.172 0.029,-0.16 l -0.003,0.01 -0.002,0.006 -0.003,0.013 -0.003,0.01 -0.002,0.007 -0.002,0.012 -0.003,0.01 -10e-4,0.008 -0.002,0.012 -0.002,0.01 -0.001,0.008 -0.001,0.012 -0.002,0.011 -0.001,0.008 v 0.011 z m 1.196,0.688 c -0.161,1.245 -0.637,2.35 -1.133,3.474 -0.77,1.746 -1.591,3.549 -0.929,6.193 0.46,1.837 1.905,3.12 3.387,4.541 1.438,1.377 2.92,2.861 3.81,4.918 C 7.215,18.71 7.669,16.932 7.349,15.241 7.11,13.981 7.059,13.378 7.119,12.937 7.18,12.482 7.358,12.186 7.634,11.545 7.883,10.969 8.707,10.017 9.177,9.098 9.362,8.737 9.524,8.395 9.407,8.106 9.342,7.945 9.174,7.837 8.915,7.738 8.656,7.639 8.493,7.38 8.516,7.102 c 0,0 0.039,-0.466 0.016,-0.912 C 8.523,6.008 8.465,5.71 8.465,5.71 c 0,0 0.01,0.018 0.015,0.025 L 8.181,5.258 C 8.035,5.025 8.059,4.723 8.24,4.516 8.425,4.303 8.43,3.922 8.194,3.694 7.915,3.424 7.849,3.013 7.956,2.484 8.013,2.203 8.143,1.847 7.981,1.475 7.873,1.226 7.634,0.987 7.21,0.742 6.666,0.427 5.908,0.401 5.078,0.435 3.825,0.487 2.423,0.707 1.196,0.688"
             style="fill:#000000;fill-opacity:1;fill-rule:evenodd;stroke:none"
             id="path385" /></g><g
           id="g387"
           transform="translate(641.0416,214.3405)"><path
             d="m 0,0 -0.315,-0.85 -0.85,-0.315 c -0.421,-0.156 -0.701,-0.558 -0.701,-1.007 0,-0.449 0.28,-0.851 0.701,-1.007 L -0.315,-3.494 0,-4.344 c 0.156,-0.421 0.558,-0.701 1.007,-0.701 0.449,0 0.851,0.28 1.007,0.701 l 0.315,0.85 0.85,0.315 c 0.421,0.156 0.701,0.558 0.701,1.007 0,0.449 -0.28,0.851 -0.701,1.007 L 2.329,-0.85 2.014,0 C 1.858,0.421 1.456,0.701 1.007,0.701 0.558,0.701 0.156,0.421 0,0 M 1.007,-0.883 1.256,-1.554 C 1.319,-1.725 1.454,-1.86 1.625,-1.924 L 2.296,-2.172 1.625,-2.42 C 1.454,-2.484 1.319,-2.619 1.256,-2.79 L 1.007,-3.461 0.759,-2.79 c -0.064,0.171 -0.199,0.306 -0.37,0.37 l -0.671,0.248 0.671,0.248 c 0.171,0.064 0.306,0.199 0.37,0.37 z"
             style="fill:#000000;fill-opacity:1;fill-rule:evenodd;stroke:none"
             id="path389" /></g><g
           id="g391"
           transform="translate(636.3652,209.7012)"><path
             d="m 0,0 -0.317,-0.858 -0.858,-0.317 c -0.421,-0.156 -0.701,-0.558 -0.701,-1.007 0,-0.449 0.28,-0.851 0.701,-1.007 L -0.317,-3.506 0,-4.364 c 0.156,-0.421 0.558,-0.701 1.007,-0.701 0.449,0 0.851,0.28 1.007,0.701 l 0.317,0.858 0.858,0.317 c 0.421,0.156 0.701,0.558 0.701,1.007 0,0.449 -0.28,0.851 -0.701,1.007 0,0 -0.858,0.317 -0.858,0.317 L 2.014,0 C 1.858,0.421 1.456,0.701 1.007,0.701 0.558,0.701 0.156,0.421 0,0 Z m 1.007,-0.883 0.251,-0.678 c 0.063,-0.171 0.198,-0.306 0.37,-0.37 L 2.306,-2.182 1.628,-2.433 C 1.456,-2.496 1.321,-2.631 1.258,-2.802 L 1.007,-3.481 0.756,-2.802 c -0.063,0.171 -0.198,0.306 -0.37,0.369 l -0.678,0.251 0.678,0.251 c 0.172,0.064 0.307,0.199 0.37,0.37 z"
             style="fill:#000000;fill-opacity:1;fill-rule:evenodd;stroke:none"
             id="path393" /></g><g
           id="g395"
           transform="translate(636.5959,222.1216)"><path
             d="m 0,0 -0.483,-1.305 -1.305,-0.483 c -0.421,-0.156 -0.701,-0.557 -0.701,-1.007 0,-0.449 0.28,-0.851 0.701,-1.007 L -0.483,-4.284 0,-5.589 c 0.156,-0.422 0.558,-0.701 1.007,-0.701 0.449,0 0.851,0.279 1.007,0.701 l 0.483,1.305 c 0,0 1.305,0.482 1.305,0.482 0.421,0.156 0.701,0.558 0.701,1.007 0,0.45 -0.28,0.851 -0.701,1.007 L 2.497,-1.305 C 2.497,-1.305 2.014,0 2.014,0 1.858,0.421 1.456,0.701 1.007,0.701 0.558,0.701 0.156,0.421 0,0 M 1.007,-0.883 1.424,-2.008 C 1.487,-2.18 1.622,-2.315 1.793,-2.378 L 2.919,-2.795 1.793,-3.211 C 1.622,-3.275 1.487,-3.41 1.424,-3.581 L 1.007,-4.707 0.59,-3.581 c -0.063,0.171 -0.198,0.306 -0.369,0.37 l -1.126,0.416 1.126,0.417 c 0.171,0.063 0.306,0.198 0.369,0.37 z"
             style="fill:#000000;fill-opacity:1;fill-rule:evenodd;stroke:none"
             id="path397" /></g><g
           id="g399"
           transform="translate(631.7407,208.9807)"><path
             d="m 0,0 c -0.062,-0.028 -0.618,-0.278 -0.996,-0.36 -0.239,-0.052 -0.471,-0.09 -0.633,-0.06 -0.339,0.064 -0.666,-0.159 -0.73,-0.498 -0.064,-0.339 0.159,-0.667 0.498,-0.731 0.527,-0.099 1.509,0.116 2.129,0.383 0.361,0.155 0.61,0.351 0.706,0.484 0.202,0.28 0.138,0.671 -0.142,0.873 C 0.57,0.28 0.21,0.236 0,0"
             style="fill:#000000;fill-opacity:1;fill-rule:evenodd;stroke:none"
             id="path401" /></g><g
           id="g403"
           transform="translate(628.7241,215.5705)"><path
             d="m 0,0 c -1.282,-0.921 -2.769,-0.458 -2.769,-0.458 -0.33,0.103 -0.681,-0.081 -0.784,-0.411 -0.102,-0.329 0.081,-0.68 0.411,-0.783 0,0 2.079,-0.651 3.871,0.636 0.281,0.201 0.345,0.592 0.144,0.873 C 0.672,0.137 0.28,0.201 0,0"
             style="fill:#000000;fill-opacity:1;fill-rule:evenodd;stroke:none"
             id="path405" /></g><g
           id="g407"
           transform="translate(629.0958,219.2135)"><path
             d="m 0,0 c -1.288,0.014 -2.807,0.091 -4.885,-1.017 -0.304,-0.162 -0.42,-0.541 -0.257,-0.846 0.162,-0.304 0.541,-0.42 0.846,-0.257 1.819,0.969 3.154,0.882 4.282,0.869 0.345,-0.003 0.629,0.274 0.633,0.619 C 0.622,-0.287 0.345,-0.004 0,0"
             style="fill:#000000;fill-opacity:1;fill-rule:evenodd;stroke:none"
             id="path409" /></g><g
           id="g411"
           transform="translate(629.0295,225.7573)"><path
             d="m 0,0 c -0.494,-3.514 -2.778,-5.433 -4.721,-7.307 -1.444,-1.394 -2.712,-2.771 -3.168,-4.597 -0.644,-2.572 -0.085,-4.448 0.642,-6.18 0.647,-1.543 1.458,-2.952 1.44,-4.733 -0.024,-2.492 -2.106,-4.306 -2.106,-4.306 -0.26,-0.228 -0.285,-0.623 -0.058,-0.882 0.228,-0.26 0.624,-0.286 0.883,-0.058 0,0 2.503,2.211 2.532,5.233 0.015,1.593 -0.529,2.927 -1.124,4.279 -0.79,1.793 -1.677,3.624 -0.996,6.344 0.509,2.033 2.214,3.392 3.859,4.996 1.825,1.779 3.602,3.812 4.056,7.037 C 1.287,0.167 1.048,0.484 0.706,0.532 0.365,0.58 0.048,0.342 0,0"
             style="fill:#000000;fill-opacity:1;fill-rule:evenodd;stroke:none"
             id="path413" /></g><g
           id="g415"
           transform="translate(624.1122,222.22)"><path
             d="m 0,0 c -2.836,-2.293 -6.384,-4.774 -6.838,-10.061 -0.144,-1.685 -0.046,-3.065 -0.085,-4.297 -0.054,-1.67 -0.392,-3.042 -2.184,-4.599 -0.261,-0.226 -0.289,-0.622 -0.062,-0.882 0.226,-0.261 0.621,-0.289 0.882,-0.062 2.145,1.863 2.549,3.504 2.614,5.502 0.039,1.214 -0.061,2.572 0.082,4.231 0.417,4.864 3.768,7.086 6.377,9.195 0.269,0.217 0.31,0.611 0.093,0.88 C 0.662,0.175 0.268,0.217 0,0"
             style="fill:#000000;fill-opacity:1;fill-rule:evenodd;stroke:none"
             id="path417" /></g></g></g></g></svg>
