<?xml version="1.0" encoding="UTF-8" standalone="no"?>
<!-- Created with Inkscape (http://www.inkscape.org/) -->

<svg
   width="16.9mm"
   height="16.9mm"
   viewBox="0 0 16.9 16.899999"
   version="1.1"
   id="svg1085"
   inkscape:version="1.1.2 (0a00cf5339, 2022-02-04)"
   sodipodi:docname="crosslinked-chains.svg"
   xmlns:inkscape="http://www.inkscape.org/namespaces/inkscape"
   xmlns:sodipodi="http://sodipodi.sourceforge.net/DTD/sodipodi-0.dtd"
   xmlns="http://www.w3.org/2000/svg"
   xmlns:svg="http://www.w3.org/2000/svg">
  <sodipodi:namedview
     id="namedview1087"
     pagecolor="#ffffff"
     bordercolor="#666666"
     borderopacity="1.0"
     inkscape:pageshadow="2"
     inkscape:pageopacity="0.0"
     inkscape:pagecheckerboard="0"
     inkscape:document-units="mm"
     showgrid="false"
     inkscape:zoom="0.75187991"
     inkscape:cx="-442.22488"
     inkscape:cy="92.434974"
     inkscape:window-width="1850"
     inkscape:window-height="1016"
     inkscape:window-x="70"
     inkscape:window-y="27"
     inkscape:window-maximized="1"
     inkscape:current-layer="layer1"
     width="16.9mm" />
  <defs
     id="defs1082" />
  <g
     inkscape:label="Layer 1"
     inkscape:groupmode="layer"
     id="layer1"
     transform="translate(-100.84275,-124.11841)">
    <g
       id="g926"
       transform="matrix(0.35277777,0,0,-0.35277777,75.5461,290.29776)">
      <g
         id="g491"
         transform="translate(93.120914,442.5599)">
        <path
           d="m 0,0 0.037,-1.06 c 0.005,-0.138 0.121,-0.246 0.259,-0.241 l 0.577,0.02 c 0.138,0.005 0.246,0.121 0.241,0.259 L 1.077,0.038 C 1.072,0.176 0.957,0.284 0.819,0.279 L 0.241,0.259 C 0.103,0.254 -0.005,0.138 0,0 Z"
           style="fill:none;stroke:#000000;stroke-width:0.5;stroke-linecap:butt;stroke-linejoin:round;stroke-miterlimit:4;stroke-dasharray:none;stroke-opacity:1"
           id="path493" />
      </g>
      <g
         id="g495"
         transform="translate(93.162714,441.3637)">
        <path
           d="M 0,0 0.045,-1.3 C 0.048,-1.382 0.091,-1.457 0.16,-1.501 0.229,-1.546 0.316,-1.553 0.391,-1.522 l 0.57,0.238 c 0.096,0.04 0.158,0.135 0.154,0.239 L 1.077,0.038 C 1.072,0.176 0.957,0.284 0.819,0.279 L 0.241,0.259 C 0.103,0.254 -0.005,0.138 0,0"
           style="fill:#000000;fill-opacity:1;fill-rule:nonzero;stroke:none"
           id="path497" />
      </g>
      <g
         id="g499"
         transform="translate(93.162714,441.3637)">
        <path
           d="M 0,0 0.045,-1.3 C 0.048,-1.382 0.091,-1.457 0.16,-1.501 0.229,-1.546 0.316,-1.553 0.391,-1.522 l 0.57,0.238 c 0.096,0.04 0.158,0.135 0.154,0.239 L 1.077,0.038 C 1.072,0.176 0.957,0.284 0.819,0.279 L 0.241,0.259 C 0.103,0.254 -0.005,0.138 0,0 Z"
           style="fill:none;stroke:#000000;stroke-width:0.5;stroke-linecap:butt;stroke-linejoin:round;stroke-miterlimit:4;stroke-dasharray:none;stroke-opacity:1"
           id="path501" />
      </g>
      <g
         id="g503"
         transform="translate(104.24231,447.5795)">
        <path
           d="m 0,0 v -1.387 c 0,-0.138 0.112,-0.25 0.25,-0.25 h 0.578 c 0.138,0 0.25,0.112 0.25,0.25 V 0 c 0,0.138 -0.112,0.25 -0.25,0.25 H 0.25 C 0.112,0.25 0,0.138 0,0 Z"
           style="fill:none;stroke:#000000;stroke-width:0.5;stroke-linecap:butt;stroke-linejoin:round;stroke-miterlimit:4;stroke-dasharray:none;stroke-opacity:1"
           id="path505" />
      </g>
      <g
         id="g507"
         transform="translate(104.24381,446.2197)">
        <path
           d="m 0,0 -0.122,-1.104 c -0.009,-0.089 0.029,-0.176 0.1,-0.228 l 0.668,-0.494 c 0.076,-0.055 0.176,-0.064 0.259,-0.023 0.084,0.041 0.138,0.126 0.14,0.22 l 0.031,1.597 C 1.078,0.035 1.052,0.1 1.005,0.148 0.958,0.196 0.893,0.223 0.826,0.223 H 0.249 C 0.121,0.223 0.014,0.127 0,0"
           style="fill:#000000;fill-opacity:1;fill-rule:nonzero;stroke:none"
           id="path509" />
      </g>
      <g
         id="g511"
         transform="translate(104.24381,446.2197)">
        <path
           d="m 0,0 -0.122,-1.104 c -0.009,-0.089 0.029,-0.176 0.1,-0.228 l 0.668,-0.494 c 0.076,-0.055 0.176,-0.064 0.259,-0.023 0.084,0.041 0.138,0.126 0.14,0.22 l 0.031,1.597 C 1.078,0.035 1.052,0.1 1.005,0.148 0.958,0.196 0.893,0.223 0.826,0.223 H 0.249 C 0.121,0.223 0.014,0.127 0,0 Z"
           style="fill:none;stroke:#000000;stroke-width:0.5;stroke-linecap:butt;stroke-linejoin:round;stroke-miterlimit:4;stroke-dasharray:none;stroke-opacity:1"
           id="path513" />
      </g>
      <g
         id="g515"
         transform="translate(108.10491,448.9587)">
        <path
           d="M 0,0 -0.387,2.444 C -0.409,2.58 -0.537,2.673 -0.673,2.651 L -1.404,2.536 C -1.539,2.514 -1.631,2.389 -1.612,2.253 l 0.395,-2.778 c 0.012,-0.083 0.065,-0.155 0.142,-0.191 0.076,-0.036 0.166,-0.03 0.237,0.014 l 0.723,0.451 C -0.029,-0.198 0.016,-0.099 0,0 Z"
           style="fill:none;stroke:#000000;stroke-width:0.5;stroke-linecap:butt;stroke-linejoin:round;stroke-miterlimit:4;stroke-dasharray:none;stroke-opacity:1"
           id="path517" />
      </g>
      <g
         id="g519"
         transform="translate(107.73851,451.272)">
        <path
           d="M 0,0 -0.275,1.927 C -0.287,2.009 -0.338,2.08 -0.412,2.116 L -1.257,2.532 C -1.341,2.573 -1.441,2.564 -1.516,2.508 -1.591,2.453 -1.629,2.36 -1.615,2.268 l 0.39,-2.458 c 0.021,-0.137 0.149,-0.23 0.286,-0.208 l 0.731,0.116 C -0.073,-0.261 0.019,-0.135 0,0"
           style="fill:#000000;fill-opacity:1;fill-rule:nonzero;stroke:none"
           id="path521" />
      </g>
      <g
         id="g523"
         transform="translate(107.73851,451.272)">
        <path
           d="M 0,0 -0.275,1.927 C -0.287,2.009 -0.338,2.08 -0.412,2.116 L -1.257,2.532 C -1.341,2.573 -1.441,2.564 -1.516,2.508 -1.591,2.453 -1.629,2.36 -1.615,2.268 l 0.39,-2.458 c 0.021,-0.137 0.149,-0.23 0.286,-0.208 l 0.731,0.116 C -0.073,-0.261 0.019,-0.135 0,0 Z"
           style="fill:none;stroke:#000000;stroke-width:0.5;stroke-linecap:butt;stroke-linejoin:round;stroke-miterlimit:4;stroke-dasharray:none;stroke-opacity:1"
           id="path525" />
      </g>
      <g
         id="g527"
         transform="translate(101.44701,457.0035)">
        <path
           d="m 0,0 0.436,-1.889 c 0.031,-0.134 0.165,-0.218 0.3,-0.187 l 0.563,0.13 c 0.134,0.031 0.218,0.165 0.187,0.3 L 1.05,0.242 C 1.019,0.377 0.885,0.461 0.75,0.43 L 0.187,0.3 C 0.053,0.269 -0.031,0.135 0,0 Z"
           style="fill:none;stroke:#000000;stroke-width:0.5;stroke-linecap:butt;stroke-linejoin:round;stroke-miterlimit:4;stroke-dasharray:none;stroke-opacity:1"
           id="path529" />
      </g>
      <g
         id="g531"
         transform="translate(101.82041,455.3862)">
        <path
           d="m 0,0 0.436,-1.889 c 0.031,-0.134 0.165,-0.218 0.3,-0.187 l 0.563,0.13 c 0.134,0.031 0.218,0.165 0.187,0.3 L 1.05,0.242 C 1.019,0.377 0.885,0.461 0.75,0.43 L 0.187,0.3 C 0.053,0.269 -0.031,0.135 0,0"
           style="fill:#000000;fill-opacity:1;fill-rule:nonzero;stroke:none"
           id="path533" />
      </g>
      <g
         id="g535"
         transform="translate(101.82041,455.3862)">
        <path
           d="m 0,0 0.436,-1.889 c 0.031,-0.134 0.165,-0.218 0.3,-0.187 l 0.563,0.13 c 0.134,0.031 0.218,0.165 0.187,0.3 L 1.05,0.242 C 1.019,0.377 0.885,0.461 0.75,0.43 L 0.187,0.3 C 0.053,0.269 -0.031,0.135 0,0 Z"
           style="fill:none;stroke:#000000;stroke-width:0.5;stroke-linecap:butt;stroke-linejoin:round;stroke-miterlimit:4;stroke-dasharray:none;stroke-opacity:1"
           id="path537" />
      </g>
      <g
         id="g539"
         transform="translate(92.035114,457.7156)">
        <path
           d="m 0,0 -0.937,-1.443 c -0.075,-0.116 -0.042,-0.27 0.074,-0.346 l 0.484,-0.314 c 0.116,-0.076 0.271,-0.043 0.346,0.073 l 0.937,1.443 c 0.075,0.116 0.042,0.271 -0.074,0.346 L 0.346,0.074 C 0.23,0.149 0.075,0.116 0,0 Z"
           style="fill:none;stroke:#000000;stroke-width:0.5;stroke-linecap:butt;stroke-linejoin:round;stroke-miterlimit:4;stroke-dasharray:none;stroke-opacity:1"
           id="path541" />
      </g>
      <g
         id="g543"
         transform="translate(91.098114,456.2726)">
        <path
           d="m 0,0 -0.937,-1.443 c -0.039,-0.06 -0.05,-0.133 -0.031,-0.202 0.018,-0.069 0.066,-0.126 0.13,-0.158 l 0.624,-0.309 c 0.12,-0.06 0.265,-0.014 0.33,0.102 l 0.797,1.438 c 0.064,0.115 0.028,0.259 -0.083,0.331 L 0.346,0.073 C 0.23,0.149 0.075,0.116 0,0"
           style="fill:#000000;fill-opacity:1;fill-rule:nonzero;stroke:none"
           id="path545" />
      </g>
      <g
         id="g547"
         transform="translate(91.098114,456.2726)">
        <path
           d="m 0,0 -0.937,-1.443 c -0.039,-0.06 -0.05,-0.133 -0.031,-0.202 0.018,-0.069 0.066,-0.126 0.13,-0.158 l 0.624,-0.309 c 0.12,-0.06 0.265,-0.014 0.33,0.102 l 0.797,1.438 c 0.064,0.115 0.028,0.259 -0.083,0.331 L 0.346,0.073 C 0.23,0.149 0.075,0.116 0,0 Z"
           style="fill:none;stroke:#000000;stroke-width:0.5;stroke-linecap:butt;stroke-linejoin:round;stroke-miterlimit:4;stroke-dasharray:none;stroke-opacity:1"
           id="path549" />
      </g>
      <g
         id="g551"
         transform="translate(83.739114,456.9606)">
        <path
           d="m 0,0 v -1.296 c 0,-0.138 0.112,-0.25 0.25,-0.25 h 0.578 c 0.138,0 0.25,0.112 0.25,0.25 V 0 c 0,0.138 -0.112,0.25 -0.25,0.25 H 0.25 C 0.112,0.25 0,0.138 0,0 Z"
           style="fill:none;stroke:#000000;stroke-width:0.5;stroke-linecap:butt;stroke-linejoin:round;stroke-miterlimit:4;stroke-dasharray:none;stroke-opacity:1"
           id="path553" />
      </g>
      <g
         id="g555"
         transform="translate(83.739114,455.665)">
        <path
           d="m 0,0 v -1.296 c 0,-0.138 0.112,-0.25 0.25,-0.25 h 0.578 c 0.138,0 0.25,0.112 0.25,0.25 V 0 c 0,0.138 -0.112,0.25 -0.25,0.25 H 0.25 C 0.112,0.25 0,0.138 0,0"
           style="fill:#000000;fill-opacity:1;fill-rule:nonzero;stroke:none"
           id="path557" />
      </g>
      <g
         id="g559"
         transform="translate(83.739114,455.665)">
        <path
           d="m 0,0 v -1.296 c 0,-0.138 0.112,-0.25 0.25,-0.25 h 0.578 c 0.138,0 0.25,0.112 0.25,0.25 V 0 c 0,0.138 -0.112,0.25 -0.25,0.25 H 0.25 C 0.112,0.25 0,0.138 0,0 Z"
           style="fill:none;stroke:#000000;stroke-width:0.5;stroke-linecap:butt;stroke-linejoin:round;stroke-miterlimit:4;stroke-dasharray:none;stroke-opacity:1"
           id="path561" />
      </g>
      <g
         id="g563"
         transform="translate(80.256714,448.8096)">
        <path
           d="m 0,0 -1.697,-1.279 c -0.11,-0.083 -0.132,-0.239 -0.049,-0.35 l 0.348,-0.461 c 0.083,-0.11 0.24,-0.132 0.35,-0.049 l 1.697,1.278 c 0.11,0.083 0.132,0.24 0.049,0.35 L 0.35,-0.049 C 0.267,0.061 0.11,0.083 0,0 Z"
           style="fill:none;stroke:#000000;stroke-width:0.5;stroke-linecap:butt;stroke-linejoin:round;stroke-miterlimit:4;stroke-dasharray:none;stroke-opacity:1"
           id="path565" />
      </g>
      <g
         id="g567"
         transform="translate(78.560014,447.5311)">
        <path
           d="m 0,0 -1.697,-1.279 c -0.11,-0.083 -0.132,-0.239 -0.049,-0.35 l 0.348,-0.461 c 0.083,-0.11 0.24,-0.132 0.35,-0.049 l 1.697,1.278 c 0.11,0.083 0.132,0.24 0.049,0.35 L 0.35,-0.049 C 0.267,0.061 0.11,0.083 0,0"
           style="fill:#000000;fill-opacity:1;fill-rule:nonzero;stroke:none"
           id="path569" />
      </g>
      <g
         id="g571"
         transform="translate(78.560014,447.5311)">
        <path
           d="m 0,0 -1.697,-1.279 c -0.11,-0.083 -0.132,-0.239 -0.049,-0.35 l 0.348,-0.461 c 0.083,-0.11 0.24,-0.132 0.35,-0.049 l 1.697,1.278 c 0.11,0.083 0.132,0.24 0.049,0.35 L 0.35,-0.049 C 0.267,0.061 0.11,0.083 0,0 Z"
           style="fill:none;stroke:#000000;stroke-width:0.5;stroke-linecap:butt;stroke-linejoin:round;stroke-miterlimit:4;stroke-dasharray:none;stroke-opacity:1"
           id="path573" />
      </g>
      <g
         id="g575"
         transform="translate(89.066514,448.5392)">
        <path
           d="M 0,0 0.738,1.697 C 0.793,1.823 0.735,1.971 0.608,2.026 l -0.461,0.2 C 0.02,2.281 -0.127,2.223 -0.182,2.097 L -0.92,0.4 C -0.975,0.273 -0.917,0.126 -0.79,0.071 L -0.329,-0.13 C -0.202,-0.185 -0.055,-0.127 0,0 Z"
           style="fill:none;stroke:#000000;stroke-width:0.5;stroke-linecap:butt;stroke-linejoin:round;stroke-miterlimit:4;stroke-dasharray:none;stroke-opacity:1"
           id="path577" />
      </g>
      <g
         id="g579"
         transform="translate(89.835314,450.3075)">
        <path
           d="M 0,0 0.738,1.697 C 0.793,1.823 0.735,1.971 0.608,2.026 l -0.461,0.2 C 0.02,2.281 -0.127,2.223 -0.182,2.097 L -0.92,0.4 C -0.975,0.273 -0.917,0.126 -0.79,0.071 L -0.329,-0.13 C -0.202,-0.185 -0.055,-0.127 0,0"
           style="fill:#000000;fill-opacity:1;fill-rule:nonzero;stroke:none"
           id="path581" />
      </g>
      <g
         id="g583"
         transform="translate(89.835314,450.3075)">
        <path
           d="M 0,0 0.738,1.697 C 0.793,1.823 0.735,1.971 0.608,2.026 l -0.461,0.2 C 0.02,2.281 -0.127,2.223 -0.182,2.097 L -0.92,0.4 C -0.975,0.273 -0.917,0.126 -0.79,0.071 L -0.329,-0.13 C -0.202,-0.185 -0.055,-0.127 0,0 Z"
           style="fill:none;stroke:#000000;stroke-width:0.5;stroke-linecap:butt;stroke-linejoin:round;stroke-miterlimit:4;stroke-dasharray:none;stroke-opacity:1"
           id="path585" />
      </g>
      <g
         id="g587"
         transform="translate(75.907914,447.3977)">
        <path
           d="m 0,0 c 0,0 2.843,-5.944 8.813,-5.497 5.97,0.447 8.746,2.315 14.215,2.315 8.528,0 13.646,-8.102 13.646,-8.102"
           style="fill:none;stroke:#000000;stroke-width:1;stroke-linecap:round;stroke-linejoin:miter;stroke-miterlimit:4;stroke-dasharray:none;stroke-opacity:1"
           id="path589" />
      </g>
      <g
         id="g591"
         transform="translate(83.524914,437.0989)">
        <path
           d="m 0,0 c 0,0 8.531,2.707 11.684,3.512 5.13,1.309 11.114,-0.293 13.964,-4.097 2.85,-3.805 2.28,-3.22 2.28,-3.22"
           style="fill:none;stroke:#000000;stroke-width:1;stroke-linecap:round;stroke-linejoin:miter;stroke-miterlimit:4;stroke-dasharray:none;stroke-opacity:1"
           id="path593" />
      </g>
      <g
         id="g595"
         transform="translate(108.34981,434.4529)">
        <path
           d="m 0,0 c 0,0 -1.993,-2.595 -5.124,-0.865 -3.131,1.73 -6.831,6.343 -11.671,4.613 -4.839,-1.73 -7.879,-6.625 -12.54,-2.974 -5.693,4.461 1.708,10.861 1.708,10.861"
           style="fill:none;stroke:#000000;stroke-width:1;stroke-linecap:round;stroke-linejoin:miter;stroke-miterlimit:4;stroke-dasharray:none;stroke-opacity:1"
           id="path597" />
      </g>
      <g
         id="g599"
         transform="translate(76.485414,428.5756)">
        <path
           d="m 0,0 c 0,0 8.043,-3.13 12.639,1.138 4.596,4.269 1.7,12.452 -2.298,15.44 -3.999,2.987 -11.696,4.979 -11.045,11.524 0,0 0.417,2.277 1.278,3.415"
           style="fill:none;stroke:#000000;stroke-width:1;stroke-linecap:round;stroke-linejoin:miter;stroke-miterlimit:4;stroke-dasharray:none;stroke-opacity:1"
           id="path601" />
      </g>
      <g
         id="g603"
         transform="translate(72.240514,461.7854)">
        <path
           d="m 0,0 c 0,0 1.705,-4.951 7.39,-2.621 5.685,2.33 6.538,3.495 10.233,0.582 3.695,-2.912 4.832,-8.154 12.222,-6.698 7.391,1.456 7.675,2.913 7.675,2.913"
           style="fill:none;stroke:#000000;stroke-width:1;stroke-linecap:round;stroke-linejoin:miter;stroke-miterlimit:4;stroke-dasharray:none;stroke-opacity:1"
           id="path605" />
      </g>
      <g
         id="g607"
         transform="translate(79.011214,461.1756)">
        <path
           d="m 0,0 c 0,0 7.959,5.169 11.086,0.862 3.127,-4.308 5.574,-10.627 10.889,-13.211 5.314,-2.585 7.304,0.678 10.43,2.297 3.127,1.62 4.833,1.62 4.833,1.62"
           style="fill:none;stroke:#000000;stroke-width:1;stroke-linecap:round;stroke-linejoin:miter;stroke-miterlimit:4;stroke-dasharray:none;stroke-opacity:1"
           id="path609" />
      </g>
      <g
         id="g611"
         transform="translate(95.091514,466.2993)">
        <path
           d="m 0,0 c 0,0 0.571,-11.493 9.135,-8.62 8.563,2.874 9.991,1.724 12.56,-2.298 2.569,-4.023 2.283,-4.597 2.283,-4.597"
           style="fill:none;stroke:#000000;stroke-width:1;stroke-linecap:round;stroke-linejoin:miter;stroke-miterlimit:4;stroke-dasharray:none;stroke-opacity:1"
           id="path613" />
      </g>
      <g
         id="g615"
         transform="translate(78.446914,466.0024)">
        <path
           d="m 0,0 c 0,0 10.686,4.048 14.096,-2.857 3.411,-6.905 9.777,-8.284 12.335,-8.57 2.558,-0.285 10.515,-2.272 11.368,-5.713 0.853,-3.441 0.138,-4.285 0.138,-4.285"
           style="fill:none;stroke:#000000;stroke-width:1;stroke-linecap:round;stroke-linejoin:miter;stroke-miterlimit:4;stroke-dasharray:none;stroke-opacity:1"
           id="path617" />
      </g>
      <g
         id="g619"
         transform="translate(72.522614,453.9677)">
        <path
           d="m 0,0 c 0,0 7.992,4.432 11.131,4.432 3.14,0 5.403,-3.954 7.133,-4.858 2.857,-1.492 5.997,-1.347 5.997,-1.347"
           style="fill:none;stroke:#000000;stroke-width:1;stroke-linecap:round;stroke-linejoin:miter;stroke-miterlimit:4;stroke-dasharray:none;stroke-opacity:1"
           id="path621" />
      </g>
      <g
         id="g623"
         transform="translate(74.046014,450.369)">
        <path
           d="m 0,0 c 0,0 6.705,5.794 10.683,5.069 3.978,-0.726 11.081,-7.82 14.491,-9.123 3.409,-1.303 5.966,-2.695 9.944,-0.881 3.978,1.813 4.546,2.908 4.546,2.908"
           style="fill:none;stroke:#000000;stroke-width:1;stroke-linecap:round;stroke-linejoin:miter;stroke-miterlimit:4;stroke-dasharray:none;stroke-opacity:1"
           id="path625" />
      </g>
      <g
         id="g627"
         transform="translate(80.421714,452.7578)">
        <path
           d="m 0,0 c 0,0 -0.171,-3.993 7.705,-4.278 7.876,-0.286 13.126,-4.257 11.985,-7.405 -1.142,-3.149 -7.419,-11.393 -2.2,-13.815 4.366,-2.026 7.225,9.436 7.225,9.436"
           style="fill:none;stroke:#000000;stroke-width:1;stroke-linecap:round;stroke-linejoin:miter;stroke-miterlimit:4;stroke-dasharray:none;stroke-opacity:1"
           id="path629" />
      </g>
    </g>
  </g>
</svg>
