<svg id="Capa_1" enable-background="new 0 0 512.002 512.002" height="512" viewBox="0 0 512.002 512.002" width="512" xmlns="http://www.w3.org/2000/svg"><g><g><path d="m468.559 160.581c-1.934-1.187-4.179-1.662-6.354-1.417 7.588-15.693 10.647-33.541 8.321-51.609-4.514-35.057-13.942-69.223-28.023-101.548-1.091-2.505-3.159-4.454-5.724-5.395-2.562-.94-5.401-.792-7.854.413-24.83 12.2-48.053 27.511-69.024 45.506-17.634 15.13-30.032 35.008-36.125 56.666-1.477-2.012-3.682-3.438-6.223-3.913-3.795-.712-7.656.826-9.926 3.945-14.697 20.198-26.872 41.296-36.187 62.705-.022.052-.045.104-.066.156-3.168 7.633-6.684 15.241-10.449 22.612-5.172 10.124-8.915 20.733-11.188 31.597-.074-.015-.149-.029-.225-.042-3.829-.661-7.707.966-9.921 4.168-15.824 22.888-34.531 43.383-55.602 60.918-4.245 3.533-4.823 9.838-1.29 14.083 3.531 4.245 9.837 4.823 14.083 1.29 17.365-14.451 33.22-30.781 47.308-48.71 1.517 4.398 3.134 8.755 4.845 13.05 1.875 4.705 6.974 7.268 11.866 5.961 4.894-1.304 8.04-6.062 7.323-11.076l-.051-.368c-2.877-21.129.81-42.489 10.661-61.771 3.99-7.812 7.717-15.873 11.077-23.962 6.156-14.141 13.658-28.155 22.396-41.854 2.907 8.485 6.193 16.827 9.831 24.953 2.066 4.615 7.253 6.962 12.082 5.468 4.83-1.494 7.785-6.358 6.885-11.334l-.1-.56c-5.856-32.806 6.411-66.834 32.017-88.805 17.004-14.59 35.586-27.302 55.354-37.877 11.065 27.657 18.596 56.63 22.413 86.276 3.428 26.628-8.102 52.641-30.112 67.906l-.367.254c-4.16 2.873-5.521 8.4-3.172 12.877 2.351 4.477 7.67 6.492 12.4 4.702 7.682-2.913 15.308-6.183 22.804-9.773-2.226 25.462-7.215 50.59-14.885 74.922-5.493 17.422-15.644 32.941-29.355 44.881-13.754 11.978-30.484 19.81-48.402 22.653l-.612.097c-4.995.78-8.622 5.166-8.45 10.219.171 5.053 4.087 9.184 9.124 9.623 11.733 1.025 23.593 1.346 35.441.957-3.03 4.575-6.165 9.082-9.387 13.491-16.135 22.082-34.746 42.221-55.317 59.857-29.417 25.22-65.2 42.454-103.481 49.842-30.859 5.956-62.748 5.382-93.401-1.524 43.061-25.539 83.065-56.465 118.457-91.725 8.62 1.154 17.238 1.729 25.709 1.729 17.642 0 34.633-2.481 49.589-7.356 5.251-1.712 8.12-7.355 6.409-12.606s-7.354-8.119-12.606-6.409c-15.208 4.958-32.966 7.057-51.354 6.189 57.842-62.787 100.713-135.583 127.484-216.501 1.734-5.243-1.109-10.899-6.354-12.635-5.235-1.732-10.899 1.109-12.635 6.354-13.878 41.947-32.245 81.631-54.911 118.782-2.755-17.965-2.099-35.967 2.075-52.278 1.369-5.351-1.858-10.798-7.209-12.166-5.347-1.368-10.797 1.859-12.166 7.209-6.553 25.61-5.827 53.491 2.043 80.911-17.404 25.587-36.954 49.869-58.605 72.735-13.051 13.784-26.827 26.929-41.22 39.391-4.744-20.775-1.258-42.952 10.242-63.683 2.679-4.83.936-10.917-3.895-13.596-4.829-2.68-10.915-.936-13.596 3.895-15.473 27.897-18.841 59.386-9.562 87.403-23.736 19.044-48.977 36.259-75.351 51.394-1.532-32.887 6.147-65.258 22.509-94.368 2.707-4.814.997-10.91-3.817-13.617-4.812-2.703-10.91-.999-13.617 3.818-19.816 35.255-28.192 74.821-24.365 114.754-16.899 8.867-34.203 16.899-51.832 24.011-5.122 2.066-7.599 7.894-5.532 13.015 1.571 3.896 5.318 6.262 9.276 6.262 1.246 0 2.513-.234 3.738-.73 19.136-7.72 37.905-16.486 56.204-26.202 24.389 7.735 49.815 11.647 75.254 11.647 15.686 0 31.376-1.482 46.828-4.465 41.686-8.045 80.66-26.819 112.709-54.296 21.74-18.639 41.405-39.916 58.448-63.242 7.388-10.111 14.344-20.703 20.674-31.481 1.906-3.245 1.828-7.286-.201-10.456s-5.667-4.92-9.411-4.56c-.392.039-.784.077-1.176.114 3.239-2.288 6.373-4.748 9.387-7.373 16.489-14.358 28.694-33.015 35.295-53.95 9.945-31.547 15.625-64.36 16.884-97.529.137-3.607-1.681-7.009-4.757-8.899z"/><circle cx="156.442" cy="322.562" r="10"/></g></g></svg>