<?xml version="1.0" encoding="UTF-8"?>
<svg xmlns="http://www.w3.org/2000/svg" xmlns:xlink="http://www.w3.org/1999/xlink" version="1.1" id="Capa_1" x="0px" y="0px" viewBox="0 0 512 512" style="enable-background:new 0 0 512 512;" xml:space="preserve" width="512" height="512">
<g>
	<g>
		<path style="fill:none;stroke:#000000;stroke-width:30;stroke-linecap:round;stroke-linejoin:round;stroke-miterlimit:10;" d="&#10;&#9;&#9;&#9;M15,296.588c40.166,0,40.166,26,80.331,26c40.166,0,40.166-26,80.332-26c40.165,0,40.165,26,80.331,26&#10;&#9;&#9;&#9;c40.167,0,40.167-26,80.333-26c40.168,0,40.168,26,80.337,26c40.168,0,40.168-26,80.337-26"/>
		<path style="fill:none;stroke:#000000;stroke-width:30;stroke-linecap:round;stroke-linejoin:round;stroke-miterlimit:10;" d="&#10;&#9;&#9;&#9;M497,236.588H261.589c-20.658,0-40.589-8.728-53.815-24.597c-7.584-9.1-19.002-14.891-31.774-14.891s-24.19,5.791-31.774,14.891&#10;&#9;&#9;&#9;c-13.226,15.869-33.157,24.597-53.815,24.597H15"/>
		<g>
			<g>
				
					<line style="fill:none;stroke:#000000;stroke-width:30;stroke-linecap:round;stroke-linejoin:round;stroke-miterlimit:10;" x1="429" y1="392.841" x2="429" y2="392.841"/>
				
					<line style="fill:none;stroke:#000000;stroke-width:30;stroke-linecap:round;stroke-linejoin:round;stroke-miterlimit:10;" x1="256" y1="392.841" x2="256" y2="392.841"/>
				
					<line style="fill:none;stroke:#000000;stroke-width:30;stroke-linecap:round;stroke-linejoin:round;stroke-miterlimit:10;" x1="83" y1="392.841" x2="83" y2="392.841"/>
			</g>
			<g>
				
					<line style="fill:none;stroke:#000000;stroke-width:30;stroke-linecap:round;stroke-linejoin:round;stroke-miterlimit:10;" x1="339" y1="362.841" x2="339" y2="362.841"/>
				
					<line style="fill:none;stroke:#000000;stroke-width:30;stroke-linecap:round;stroke-linejoin:round;stroke-miterlimit:10;" x1="179" y1="362.841" x2="179" y2="362.841"/>
			</g>
		</g>
	</g>
	<g>
		<g>
			
				<line style="fill:none;stroke:#000000;stroke-width:30;stroke-linecap:round;stroke-linejoin:round;stroke-miterlimit:10;" x1="111.63" y1="166.742" x2="98.624" y2="153.736"/>
			
				<line style="fill:none;stroke:#000000;stroke-width:30;stroke-linecap:round;stroke-linejoin:round;stroke-miterlimit:10;" x1="240.37" y1="166.742" x2="253.376" y2="153.736"/>
		</g>
		
			<line style="fill:none;stroke:#000000;stroke-width:30;stroke-linecap:round;stroke-linejoin:round;stroke-miterlimit:10;" x1="176" y1="137.552" x2="176" y2="119.159"/>
	</g>
</g>















</svg>
