<?xml version="1.0" encoding="UTF-8" standalone="no"?>
<!-- Created with Inkscape (http://www.inkscape.org/) -->

<svg
   version="1.1"
   id="svg25"
   xml:space="preserve"
   width="38.910667"
   height="39.627331"
   viewBox="0 0 38.910667 39.627331"
   sodipodi:docname="skincare.svg"
   inkscape:version="1.1.2 (0a00cf5339, 2022-02-04)"
   xmlns:inkscape="http://www.inkscape.org/namespaces/inkscape"
   xmlns:sodipodi="http://sodipodi.sourceforge.net/DTD/sodipodi-0.dtd"
   xmlns="http://www.w3.org/2000/svg"
   xmlns:svg="http://www.w3.org/2000/svg"><defs
     id="defs29"><clipPath
       clipPathUnits="userSpaceOnUse"
       id="clipPath45"><path
         d="M 0,595.276 H 841.89 V 0 H 0 Z"
         id="path43" /></clipPath><clipPath
       clipPathUnits="userSpaceOnUse"
       id="clipPath241"><path
         d="m 233.362,206.336 h 35.135 v 27.959 h -35.135 z"
         id="path239" /></clipPath><clipPath
       clipPathUnits="userSpaceOnUse"
       id="clipPath249"><path
         d="M -32768,32767 H 32767 V -32768 H -32768 Z"
         id="path247" /></clipPath><clipPath
       clipPathUnits="userSpaceOnUse"
       id="clipPath301"><path
         d="m 420.945,197.333 h 40.073 v 40.074 h -40.073 z"
         id="path299" /></clipPath><clipPath
       clipPathUnits="userSpaceOnUse"
       id="clipPath337"><path
         d="m 613.024,366.5 h 40.074 v 40.074 h -40.074 z"
         id="path335" /></clipPath><clipPath
       clipPathUnits="userSpaceOnUse"
       id="clipPath381"><path
         d="m 610.266,191.855 h 40.073 v 40.074 h -40.073 z"
         id="path379" /></clipPath><clipPath
       clipPathUnits="userSpaceOnUse"
       id="clipPath425"><path
         d="m 44.833,193.325 h 44.081 v 44.082 H 44.833 Z"
         id="path423" /></clipPath><clipPath
       clipPathUnits="userSpaceOnUse"
       id="clipPath449"><path
         d="m 426.492,373.463 h 23.863 v 23.863 h -23.863 z"
         id="path447" /></clipPath><clipPath
       clipPathUnits="userSpaceOnUse"
       id="clipPath457"><path
         d="M -32768,32767 H 32767 V -32768 H -32768 Z"
         id="path455" /></clipPath><clipPath
       clipPathUnits="userSpaceOnUse"
       id="clipPath485"><path
         d="M 0,0 H 841.89 V 595.276 H 0 Z"
         id="path483" /></clipPath><clipPath
       clipPathUnits="userSpaceOnUse"
       id="clipPath337-4"><path
         d="m 613.024,366.5 h 40.074 v 40.074 h -40.074 z"
         id="path335-2" /></clipPath></defs><sodipodi:namedview
     id="namedview27"
     pagecolor="#ffffff"
     bordercolor="#666666"
     borderopacity="1.0"
     inkscape:pageshadow="2"
     inkscape:pageopacity="0.0"
     inkscape:pagecheckerboard="0"
     showgrid="false"
     inkscape:zoom="1.0167552"
     inkscape:cx="50.651326"
     inkscape:cy="234.56973"
     inkscape:window-width="1850"
     inkscape:window-height="1016"
     inkscape:window-x="70"
     inkscape:window-y="27"
     inkscape:window-maximized="1"
     inkscape:current-layer="g31" /><g
     id="g31"
     inkscape:groupmode="layer"
     inkscape:label="Hallura_brochure_a4_H"
     transform="matrix(1.3333333,0,0,-1.3333333,-494.92609,520.42577)"><g
       id="g331"
       transform="translate(-247.25072,-10.680961)"><g
         id="g333"
         clip-path="url(#clipPath337-4)"><g
           id="g339"
           transform="translate(619.0703,377.8821)"><path
             d="m 0,0 h 27.933 c 0.345,0 0.625,0.28 0.625,0.625 0,0.345 -0.28,0.626 -0.625,0.626 H 0 C -0.345,1.251 -0.625,0.97 -0.625,0.625 -0.625,0.28 -0.345,0 0,0"
             style="fill:#000000;fill-opacity:1;fill-rule:evenodd;stroke:none"
             id="path341" /></g><g
           id="g343"
           transform="translate(619.8196,374.1094)"><path
             d="m 0,0 c 1.072,0.212 2.141,0.648 3.213,0.648 0.497,0 0.993,-0.157 1.49,-0.304 0.614,-0.183 1.23,-0.356 1.845,-0.356 0.614,0 1.23,0.173 1.845,0.356 0.497,0.147 0.992,0.304 1.489,0.304 0.497,0 0.993,-0.157 1.49,-0.304 0.614,-0.183 1.23,-0.356 1.845,-0.356 0.614,0 1.231,0.173 1.845,0.356 0.497,0.147 0.993,0.304 1.49,0.304 0.497,0 0.992,-0.157 1.489,-0.304 0.614,-0.183 1.231,-0.356 1.845,-0.356 0.615,0 1.231,0.173 1.845,0.356 0.498,0.147 0.993,0.304 1.49,0.304 1.072,0 2.141,-0.436 3.213,-0.648 0.339,-0.067 0.668,0.154 0.735,0.492 0.067,0.339 -0.154,0.668 -0.492,0.735 -1.151,0.228 -2.305,0.671 -3.456,0.671 -0.615,0 -1.231,-0.173 -1.845,-0.355 -0.497,-0.148 -0.993,-0.304 -1.49,-0.304 -0.497,0 -0.992,0.156 -1.489,0.304 -0.615,0.182 -1.231,0.355 -1.845,0.355 -0.615,0 -1.231,-0.173 -1.846,-0.355 C 14.209,1.395 13.714,1.239 13.217,1.239 12.72,1.239 12.225,1.395 11.728,1.543 11.113,1.725 10.497,1.898 9.882,1.898 9.268,1.898 8.652,1.725 8.037,1.543 7.54,1.395 7.045,1.239 6.548,1.239 6.051,1.239 5.555,1.395 5.058,1.543 4.444,1.725 3.828,1.898 3.213,1.898 2.062,1.898 0.909,1.455 -0.243,1.227 -0.581,1.16 -0.802,0.831 -0.735,0.492 -0.668,0.154 -0.339,-0.067 0,0"
             style="fill:#000000;fill-opacity:1;fill-rule:evenodd;stroke:none"
             id="path345" /></g><g
           id="g347"
           transform="translate(622.2493,371.2798)"><path
             d="m 0,0 h 3.06 c 0.345,0 0.625,0.28 0.625,0.625 0,0.346 -0.28,0.626 -0.625,0.626 H 0 c -0.345,0 -0.625,-0.28 -0.625,-0.626 C -0.625,0.28 -0.345,0 0,0"
             style="fill:#000000;fill-opacity:1;fill-rule:evenodd;stroke:none"
             id="path349" /></g><g
           id="g351"
           transform="translate(628.4208,371.2798)"><path
             d="m 0,0 h 3.06 c 0.345,0 0.625,0.28 0.625,0.625 0,0.346 -0.28,0.626 -0.625,0.626 H 0 c -0.345,0 -0.625,-0.28 -0.625,-0.626 C -0.625,0.28 -0.345,0 0,0"
             style="fill:#000000;fill-opacity:1;fill-rule:evenodd;stroke:none"
             id="path353" /></g><g
           id="g355"
           transform="translate(634.5924,371.2798)"><path
             d="m 0,0 h 3.06 c 0.345,0 0.625,0.28 0.625,0.625 0,0.346 -0.28,0.626 -0.625,0.626 H 0 c -0.345,0 -0.625,-0.28 -0.625,-0.626 C -0.625,0.28 -0.345,0 0,0"
             style="fill:#000000;fill-opacity:1;fill-rule:evenodd;stroke:none"
             id="path357" /></g><g
           id="g359"
           transform="translate(640.7638,371.2798)"><path
             d="m 0,0 h 3.06 c 0.345,0 0.625,0.28 0.625,0.625 0,0.346 -0.28,0.626 -0.625,0.626 H 0 c -0.345,0 -0.625,-0.28 -0.625,-0.626 C -0.625,0.28 -0.345,0 0,0"
             style="fill:#000000;fill-opacity:1;fill-rule:evenodd;stroke:none"
             id="path361" /></g><g
           id="g363"
           transform="translate(626.2951,398.3413)"><path
             d="m 0,0 -1.614,-4.363 -4.363,-1.614 c -0.421,-0.156 -0.701,-0.558 -0.701,-1.007 0,-0.45 0.28,-0.851 0.701,-1.007 L -1.614,-9.605 0,-13.968 c 0.156,-0.422 0.558,-0.701 1.007,-0.701 0.449,0 0.851,0.279 1.007,0.701 l 1.614,4.363 4.363,1.614 c 0.421,0.156 0.701,0.557 0.701,1.007 0,0.449 -0.28,0.851 -0.701,1.007 0,0 -4.363,1.614 -4.363,1.614 L 2.014,0 C 1.858,0.421 1.456,0.701 1.007,0.701 0.558,0.701 0.156,0.421 0,0 Z M 1.007,-0.883 2.555,-5.067 C 2.618,-5.238 2.753,-5.373 2.924,-5.436 L 7.108,-6.984 2.924,-8.532 C 2.753,-8.596 2.618,-8.731 2.555,-8.902 l -1.548,-4.184 -1.548,4.184 c -0.064,0.171 -0.199,0.306 -0.37,0.37 l -4.183,1.548 4.183,1.548 c 0.171,0.063 0.306,0.198 0.37,0.369 z"
             style="fill:#000000;fill-opacity:1;fill-rule:evenodd;stroke:none"
             id="path365" /></g><g
           id="g367"
           transform="translate(636.2017,389.5327)"><path
             d="m 0,0 -0.833,-2.252 -2.252,-0.834 c -0.422,-0.155 -0.701,-0.557 -0.701,-1.007 0,-0.449 0.279,-0.851 0.701,-1.006 L -0.833,-5.933 0,-8.185 c 0.156,-0.421 0.558,-0.701 1.007,-0.701 0.449,0 0.851,0.28 1.007,0.701 l 0.833,2.252 2.252,0.834 c 0.422,0.155 0.702,0.557 0.702,1.006 0,0.45 -0.28,0.852 -0.702,1.007 L 2.847,-2.252 2.014,0 C 1.858,0.421 1.456,0.701 1.007,0.701 0.558,0.701 0.156,0.421 0,0 m 1.007,-0.883 0.767,-2.073 c 0.063,-0.171 0.198,-0.306 0.37,-0.369 L 4.217,-4.093 2.144,-4.86 C 1.972,-4.923 1.837,-5.058 1.774,-5.229 L 1.007,-7.302 0.24,-5.229 c -0.063,0.171 -0.198,0.306 -0.37,0.369 l -2.073,0.767 2.073,0.768 c 0.172,0.063 0.307,0.198 0.37,0.369 z"
             style="fill:#000000;fill-opacity:1;fill-rule:evenodd;stroke:none"
             id="path369" /></g><g
           id="g371"
           transform="translate(639.774,400.2993)"><path
             d="m 0,0 -0.833,-2.252 -2.252,-0.833 c -0.422,-0.156 -0.702,-0.558 -0.702,-1.007 0,-0.45 0.28,-0.852 0.702,-1.007 L -0.833,-5.933 0,-8.185 c 0.156,-0.421 0.558,-0.701 1.007,-0.701 0.449,0 0.851,0.28 1.007,0.701 l 0.833,2.252 2.252,0.834 c 0.422,0.155 0.702,0.557 0.702,1.007 0,0.449 -0.28,0.851 -0.702,1.007 L 2.847,-2.252 2.014,0 C 1.858,0.421 1.456,0.701 1.007,0.701 0.558,0.701 0.156,0.421 0,0 m 1.007,-0.883 0.767,-2.073 c 0.063,-0.171 0.198,-0.306 0.37,-0.369 L 4.217,-4.092 2.144,-4.859 C 1.972,-4.923 1.837,-5.058 1.774,-5.229 L 1.007,-7.302 0.24,-5.229 c -0.063,0.171 -0.198,0.306 -0.37,0.37 l -2.073,0.767 2.073,0.767 c 0.172,0.063 0.307,0.198 0.37,0.369 z"
             style="fill:#000000;fill-opacity:1;fill-rule:evenodd;stroke:none"
             id="path373" /></g></g></g></g></svg>
