<?xml version="1.0" encoding="UTF-8" standalone="no"?>
<!-- Created with Inkscape (http://www.inkscape.org/) -->

<svg
   version="1.1"
   id="svg25"
   xml:space="preserve"
   width="30.493332"
   height="38.681374"
   viewBox="0 0 30.493331 38.681373"
   sodipodi:docname="skin-oil.svg"
   xmlns:inkscape="http://www.inkscape.org/namespaces/inkscape"
   xmlns:sodipodi="http://sodipodi.sourceforge.net/DTD/sodipodi-0.dtd"
   xmlns="http://www.w3.org/2000/svg"
   xmlns:svg="http://www.w3.org/2000/svg"><defs
     id="defs29"><clipPath
       clipPathUnits="userSpaceOnUse"
       id="clipPath45"><path
         d="M 0,595.276 H 841.89 V 0 H 0 Z"
         id="path43" /></clipPath><clipPath
       clipPathUnits="userSpaceOnUse"
       id="clipPath241"><path
         d="m 233.362,206.336 h 35.135 v 27.959 h -35.135 z"
         id="path239" /></clipPath><clipPath
       clipPathUnits="userSpaceOnUse"
       id="clipPath249"><path
         d="M -32768,32767 H 32767 V -32768 H -32768 Z"
         id="path247" /></clipPath><clipPath
       clipPathUnits="userSpaceOnUse"
       id="clipPath301"><path
         d="m 420.945,197.333 h 40.073 v 40.074 h -40.073 z"
         id="path299" /></clipPath><clipPath
       clipPathUnits="userSpaceOnUse"
       id="clipPath337"><path
         d="m 613.024,366.5 h 40.074 v 40.074 h -40.074 z"
         id="path335" /></clipPath><clipPath
       clipPathUnits="userSpaceOnUse"
       id="clipPath381"><path
         d="m 610.266,191.855 h 40.073 v 40.074 h -40.073 z"
         id="path379" /></clipPath><clipPath
       clipPathUnits="userSpaceOnUse"
       id="clipPath425"><path
         d="m 44.833,193.325 h 44.081 v 44.082 H 44.833 Z"
         id="path423" /></clipPath><clipPath
       clipPathUnits="userSpaceOnUse"
       id="clipPath449"><path
         d="m 426.492,373.463 h 23.863 v 23.863 h -23.863 z"
         id="path447" /></clipPath><clipPath
       clipPathUnits="userSpaceOnUse"
       id="clipPath457"><path
         d="M -32768,32767 H 32767 V -32768 H -32768 Z"
         id="path455" /></clipPath><clipPath
       clipPathUnits="userSpaceOnUse"
       id="clipPath485"><path
         d="M 0,0 H 841.89 V 595.276 H 0 Z"
         id="path483" /></clipPath><clipPath
       clipPathUnits="userSpaceOnUse"
       id="clipPath425-8"><path
         d="m 44.833,193.325 h 44.081 v 44.082 H 44.833 Z"
         id="path423-2" /></clipPath></defs><sodipodi:namedview
     id="namedview27"
     pagecolor="#ffffff"
     bordercolor="#666666"
     borderopacity="1.0"
     inkscape:pageshadow="2"
     inkscape:pageopacity="0.0"
     inkscape:pagecheckerboard="0"
     showgrid="false"
     inkscape:zoom="1.0167552"
     inkscape:cx="-124.41539"
     inkscape:cy="149.98694"
     inkscape:window-width="1850"
     inkscape:window-height="1016"
     inkscape:window-x="70"
     inkscape:window-y="27"
     inkscape:window-maximized="1"
     inkscape:current-layer="g31"
     width="39px"><inkscape:grid
       type="xygrid" /></sodipodi:namedview><g
     id="g31"
     inkscape:groupmode="layer"
     inkscape:label="Hallura_brochure_a4_H"
     transform="matrix(1.3333333,0,0,-1.3333333,-333.90324,472.74379)"><g
       id="g419"
       transform="translate(195.01574,124.65835)"><g
         id="g421"
         clip-path="url(#clipPath425-8)"><g
           id="g427"
           transform="translate(66.8467,200.8885)"><path
             d="m 0,0 c 0,0 3.988,-0.06 7.918,5.03 3.17,4.105 3.517,9.894 3.517,18.971 0,0.364 -0.283,0.664 -0.645,0.687 -7.003,0.434 -10.275,4.09 -10.275,4.09 -0.13,0.148 -0.318,0.233 -0.516,0.233 -0.197,0 -0.385,-0.085 -0.515,-0.233 0,0 -3.271,-3.656 -10.274,-4.09 -0.362,-0.023 -0.645,-0.323 -0.645,-0.687 0,-9.077 0.346,-14.866 3.516,-18.971 C -3.988,-0.06 0,0 0,0 Z m 0,1.376 h -0.002 c -0.004,0 -3.405,0.063 -6.828,4.495 -2.951,3.821 -3.217,9.193 -3.229,17.493 C -4.463,23.872 -1.191,26.297 0,27.363 1.19,26.297 4.463,23.872 10.059,23.364 10.047,15.064 9.78,9.692 6.829,5.871 3.404,1.435 0,1.376 0,1.376"
             style="fill:#000000;fill-opacity:1;fill-rule:evenodd;stroke:none"
             id="path429" /></g><g
           id="g431"
           transform="translate(63.8898,220.6258)"><path
             d="m 0,0 c -0.168,0 -0.384,-0.049 -0.625,-0.184 -0.309,-0.172 -0.723,-0.525 -1.164,-1.019 -1.345,-1.506 -3.02,-4.368 -3.02,-6.626 0,-2.654 2.155,-4.809 4.809,-4.809 2.654,0 4.809,2.155 4.809,4.809 0,2.287 -1.676,5.138 -3.021,6.635 C 1.346,-0.703 0.932,-0.353 0.623,-0.182 0.383,-0.049 0.167,0 0,0 M 0.001,-1.429 C 0.159,-1.55 0.509,-1.83 0.764,-2.114 1.928,-3.409 3.433,-5.85 3.433,-7.829 c 0,-1.895 -1.538,-3.434 -3.433,-3.434 -1.895,0 -3.433,1.539 -3.433,3.434 0,1.955 1.506,4.406 2.67,5.709 0.256,0.286 0.606,0.569 0.764,0.691"
             style="fill:#000000;fill-opacity:1;fill-rule:evenodd;stroke:none"
             id="path433" /></g><g
           id="g435"
           transform="translate(71.7885,222.8006)"><path
             d="m 0,0 c -0.191,0 -0.54,-0.117 -0.889,-0.475 -0.743,-0.762 -1.935,-2.833 -1.935,-4.423 0,-1.743 1.291,-3.117 2.824,-3.117 1.533,0 2.824,1.374 2.824,3.117 0,1.611 -1.194,3.67 -1.937,4.427 C 0.538,-0.116 0.191,0 0,0 M 0.001,-1.571 C 0.162,-1.758 0.378,-2.027 0.536,-2.284 0.997,-3.036 1.448,-4.043 1.448,-4.898 1.448,-5.837 0.825,-6.64 0,-6.64 c -0.825,0 -1.448,0.803 -1.448,1.742 0,0.844 0.452,1.852 0.913,2.607 0.158,0.259 0.376,0.531 0.536,0.72"
             style="fill:#000000;fill-opacity:1;fill-rule:evenodd;stroke:none"
             id="path437" /></g><g
           id="g439"
           transform="translate(61.1399,213.1351)"><path
             d="m 0,0 c 0,0 -0.24,-1.848 1.586,-2.681 0.346,-0.158 0.754,-0.005 0.912,0.34 0.157,0.346 0.005,0.754 -0.341,0.912 C 1.282,-1.03 1.366,-0.163 1.366,-0.163 1.411,0.214 1.142,0.556 0.765,0.601 0.388,0.647 0.045,0.377 0,0 Z"
             style="fill:#000000;fill-opacity:1;fill-rule:evenodd;stroke:none"
             id="path441" /></g></g></g></g></svg>
