<?xml version="1.0" encoding="UTF-8" standalone="no"?>
<!-- Created with Inkscape (http://www.inkscape.org/) -->

<svg
   version="1.1"
   id="svg25"
   xml:space="preserve"
   width="42"
   height="42"
   viewBox="0 0 41.999999 41.999999"
   sodipodi:docname="time.svg"
   inkscape:version="1.1.2 (0a00cf5339, 2022-02-04)"
   xmlns:inkscape="http://www.inkscape.org/namespaces/inkscape"
   xmlns:sodipodi="http://sodipodi.sourceforge.net/DTD/sodipodi-0.dtd"
   xmlns="http://www.w3.org/2000/svg"
   xmlns:svg="http://www.w3.org/2000/svg"><defs
     id="defs29"><clipPath
       clipPathUnits="userSpaceOnUse"
       id="clipPath45"><path
         d="M 0,595.276 H 841.89 V 0 H 0 Z"
         id="path43" /></clipPath><clipPath
       clipPathUnits="userSpaceOnUse"
       id="clipPath241"><path
         d="m 233.362,206.336 h 35.135 v 27.959 h -35.135 z"
         id="path239" /></clipPath><clipPath
       clipPathUnits="userSpaceOnUse"
       id="clipPath249"><path
         d="M -32768,32767 H 32767 V -32768 H -32768 Z"
         id="path247" /></clipPath><clipPath
       clipPathUnits="userSpaceOnUse"
       id="clipPath301"><path
         d="m 420.945,197.333 h 40.073 v 40.074 h -40.073 z"
         id="path299" /></clipPath><clipPath
       clipPathUnits="userSpaceOnUse"
       id="clipPath337"><path
         d="m 613.024,366.5 h 40.074 v 40.074 h -40.074 z"
         id="path335" /></clipPath><clipPath
       clipPathUnits="userSpaceOnUse"
       id="clipPath381"><path
         d="m 610.266,191.855 h 40.073 v 40.074 h -40.073 z"
         id="path379" /></clipPath><clipPath
       clipPathUnits="userSpaceOnUse"
       id="clipPath425"><path
         d="m 44.833,193.325 h 44.081 v 44.082 H 44.833 Z"
         id="path423" /></clipPath><clipPath
       clipPathUnits="userSpaceOnUse"
       id="clipPath449"><path
         d="m 426.492,373.463 h 23.863 v 23.863 h -23.863 z"
         id="path447" /></clipPath><clipPath
       clipPathUnits="userSpaceOnUse"
       id="clipPath457"><path
         d="M -32768,32767 H 32767 V -32768 H -32768 Z"
         id="path455" /></clipPath><clipPath
       clipPathUnits="userSpaceOnUse"
       id="clipPath485"><path
         d="M 0,0 H 841.89 V 595.276 H 0 Z"
         id="path483" /></clipPath><clipPath
       clipPathUnits="userSpaceOnUse"
       id="clipPath301-3"><path
         d="m 420.945,197.333 h 40.073 v 40.074 h -40.073 z"
         id="path299-6" /></clipPath></defs><sodipodi:namedview
     id="namedview27"
     pagecolor="#ffffff"
     bordercolor="#666666"
     borderopacity="1.0"
     inkscape:pageshadow="2"
     inkscape:pageopacity="0.0"
     inkscape:pagecheckerboard="0"
     showgrid="false"
     width="42px"
     inkscape:zoom="1.0167552"
     inkscape:cx="-156.87158"
     inkscape:cy="38.849075"
     inkscape:window-width="1850"
     inkscape:window-height="1016"
     inkscape:window-x="70"
     inkscape:window-y="27"
     inkscape:window-maximized="1"
     inkscape:current-layer="g31" /><g
     id="g31"
     inkscape:groupmode="layer"
     inkscape:label="Hallura_brochure_a4_H"
     transform="matrix(1.3333333,0,0,-1.3333333,-379.14783,436.02135)"><g
       id="g295"
       transform="translate(-140.84612,93.870651)"><g
         id="g297"
         clip-path="url(#clipPath301-3)"><g
           id="g303"
           transform="translate(442.7216,203.0317)"><path
             d="m 0,0 c -0.577,-0.078 -1.166,-0.118 -1.765,-0.118 h -0.021 c -0.346,10e-4 -0.626,-0.279 -0.627,-0.624 0,-0.345 0.279,-0.626 0.625,-0.626 h 0.023 c 0.655,0 1.3,0.043 1.932,0.128 0.342,0.046 0.582,0.362 0.536,0.704 C 0.657,-0.194 0.342,0.046 0,0 m -4.746,0.223 c -0.586,0.136 -1.157,0.311 -1.71,0.523 -0.322,0.124 -0.684,-0.038 -0.808,-0.36 -0.123,-0.322 0.038,-0.684 0.361,-0.808 0.606,-0.232 1.232,-0.424 1.874,-0.574 0.337,-0.078 0.673,0.132 0.751,0.468 0.078,0.336 -0.131,0.672 -0.468,0.751 M 4.512,1.478 C 3.99,1.194 3.447,0.944 2.886,0.731 2.563,0.608 2.401,0.247 2.523,-0.076 2.646,-0.398 3.007,-0.561 3.33,-0.439 3.945,-0.205 4.539,0.069 5.111,0.38 5.414,0.546 5.525,0.926 5.36,1.229 5.195,1.532 4.814,1.644 4.512,1.478 M -9.097,2.121 c -0.496,0.335 -0.968,0.703 -1.413,1.1 -0.257,0.23 -0.653,0.208 -0.883,-0.05 -0.23,-0.257 -0.208,-0.653 0.05,-0.883 0.487,-0.435 1.003,-0.837 1.546,-1.203 0.286,-0.194 0.675,-0.118 0.868,0.168 0.193,0.286 0.118,0.675 -0.168,0.868 m 17.3,2.347 C 7.814,4.015 7.395,3.589 6.948,3.192 6.69,2.963 6.666,2.567 6.896,2.309 7.125,2.051 7.52,2.028 7.778,2.257 8.267,2.691 8.726,3.158 9.152,3.654 9.377,3.916 9.347,4.311 9.085,4.536 8.823,4.76 8.428,4.73 8.203,4.468 m -20.697,0.976 c -0.343,0.486 -0.655,0.996 -0.931,1.527 -0.16,0.307 -0.537,0.426 -0.844,0.267 -0.306,-0.159 -0.425,-0.537 -0.266,-0.843 0.303,-0.583 0.644,-1.142 1.02,-1.674 0.2,-0.281 0.59,-0.348 0.872,-0.149 0.282,0.199 0.349,0.59 0.149,0.872 m 23.09,3.127 C 10.393,8.006 10.152,7.459 9.876,6.933 9.716,6.627 9.834,6.249 10.139,6.089 c 0.306,-0.16 0.685,-0.042 0.845,0.264 0.302,0.576 0.566,1.175 0.789,1.794 0.117,0.325 -0.052,0.683 -0.377,0.8 -0.324,0.117 -0.683,-0.051 -0.8,-0.376 m -25.084,1.181 c -0.147,0.573 -0.256,1.16 -0.324,1.76 -0.04,0.343 -0.35,0.589 -0.693,0.55 -0.343,-0.039 -0.589,-0.349 -0.55,-0.692 0.075,-0.657 0.194,-1.301 0.355,-1.928 0.085,-0.334 0.426,-0.536 0.761,-0.451 0.334,0.086 0.536,0.427 0.451,0.761 m 25.854,3.505 c 0.001,-0.08 0.002,-0.161 0.002,-0.242 0,-0.523 -0.03,-1.039 -0.09,-1.546 -0.04,-0.343 0.205,-0.654 0.548,-0.694 0.343,-0.04 0.654,0.205 0.694,0.548 0.065,0.555 0.099,1.12 0.099,1.692 0,0.089 -10e-4,0.177 -0.002,0.265 -0.007,0.345 -0.292,0.62 -0.637,0.614 -0.345,-0.007 -0.62,-0.292 -0.614,-0.637 m -0.942,4.654 c 0.221,-0.549 0.406,-1.118 0.552,-1.701 0.084,-0.335 0.424,-0.539 0.759,-0.455 0.335,0.084 0.538,0.424 0.455,0.759 -0.16,0.639 -0.363,1.262 -0.606,1.864 -0.129,0.321 -0.493,0.476 -0.814,0.347 -0.32,-0.129 -0.475,-0.494 -0.346,-0.814 m -2.542,4.012 c 0.404,-0.438 0.78,-0.903 1.123,-1.394 0.197,-0.282 0.588,-0.351 0.87,-0.154 0.283,0.198 0.352,0.588 0.154,0.871 C 9.654,21.783 9.243,22.292 8.8,22.772 8.566,23.026 8.17,23.041 7.917,22.807 7.663,22.573 7.647,22.177 7.882,21.923"
             style="fill:#000000;fill-opacity:1;fill-rule:evenodd;stroke:none"
             id="path305" /></g><g
           id="g307"
           transform="translate(427.9104,214.5338)"><path
             d="m 0,0 c -0.057,0.496 -0.086,1.001 -0.086,1.513 0,7.248 5.884,13.133 13.132,13.133 0.346,0 0.626,0.28 0.626,0.625 0,0.345 -0.28,0.626 -0.626,0.626 -7.938,0 -14.383,-6.445 -14.383,-14.384 0,-0.56 0.032,-1.112 0.094,-1.656 0.04,-0.343 0.35,-0.589 0.693,-0.55 0.343,0.04 0.589,0.35 0.55,0.693"
             style="fill:#000000;fill-opacity:1;fill-rule:evenodd;stroke:none"
             id="path309" /></g><g
           id="g311"
           transform="translate(439.2709,232.0818)"><path
             d="M 0,0 2.065,-2.277 0,-4.553 c -0.232,-0.256 -0.213,-0.652 0.043,-0.884 0.256,-0.231 0.651,-0.212 0.883,0.044 l 2.446,2.696 c 0.216,0.239 0.216,0.602 0,0.841 L 0.926,0.84 C 0.694,1.096 0.299,1.115 0.043,0.883 -0.213,0.652 -0.232,0.256 0,0"
             style="fill:#000000;fill-opacity:1;fill-rule:evenodd;stroke:none"
             id="path313" /></g><g
           id="g315"
           transform="translate(446.1068,222.9105)"><path
             d="M 0,0 C 0,0.345 -0.28,0.625 -0.625,0.625 H -9.674 C -10.02,0.625 -10.3,0.345 -10.3,0 v -1.957 c 0,-1.812 0.986,-3.481 2.572,-4.355 1.216,-0.67 2.471,-1.362 2.471,-1.362 0.195,-0.108 0.433,-0.103 0.624,0.012 0,0 1.12,0.673 2.221,1.334 C -0.915,-5.429 0,-3.811 0,-2.065 Z m -1.251,-0.625 v -1.44 c 0,-1.307 -0.685,-2.518 -1.805,-3.191 0,0 -1.913,-1.149 -1.913,-1.149 l -2.155,1.188 c -1.187,0.655 -1.925,1.904 -1.925,3.26 v 1.332 z"
             style="fill:#000000;fill-opacity:1;fill-rule:evenodd;stroke:none"
             id="path317" /></g><g
           id="g319"
           transform="translate(446.8865,223.5359)"><path
             d="m 0,0 h -11.859 c -0.345,0 -0.625,-0.28 -0.625,-0.625 0,-0.346 0.28,-0.626 0.625,-0.626 H 0 c 0.345,0 0.625,0.28 0.625,0.626 C 0.625,-0.28 0.345,0 0,0"
             style="fill:#000000;fill-opacity:1;fill-rule:evenodd;stroke:none"
             id="path321" /></g><g
           id="g323"
           transform="translate(445.4813,208.0327)"><path
             d="m 0,0 c 0.345,0 0.625,0.28 0.625,0.625 v 2.066 c 0,1.745 -0.915,3.363 -2.411,4.262 -1.101,0.662 -2.222,1.335 -2.222,1.335 -0.191,0.114 -0.429,0.119 -0.624,0.011 0,0 -1.255,-0.691 -2.47,-1.362 C -8.689,6.063 -9.674,4.394 -9.674,2.583 V 0.625 C -9.674,0.28 -9.394,0 -9.049,0 Z m -0.625,1.251 h -7.798 v 1.332 c 0,1.356 0.737,2.605 1.925,3.259 L -4.343,7.03 -2.43,5.881 c 1.12,-0.673 1.805,-1.884 1.805,-3.19 z"
             style="fill:#000000;fill-opacity:1;fill-rule:evenodd;stroke:none"
             id="path325" /></g><g
           id="g327"
           transform="translate(446.8865,209.2834)"><path
             d="m 0,0 h -11.859 c -0.345,0 -0.625,-0.28 -0.625,-0.625 0,-0.345 0.28,-0.626 0.625,-0.626 H 0 c 0.345,0 0.625,0.281 0.625,0.626 C 0.625,-0.28 0.345,0 0,0"
             style="fill:#000000;fill-opacity:1;fill-rule:evenodd;stroke:none"
             id="path329" /></g></g></g></g></svg>
