<svg width="153" height="101" viewBox="0 0 150.4 100.001" xmlns="http://www.w3.org/2000/svg"><g id="svgGroup" stroke-linecap="round" fill-rule="nonzero" font-size="9pt" stroke="#eaddd9" stroke-width="0.25mm" fill="#eaddd9" style="stroke:#eaddd9;stroke-width:0.25mm;fill:#eaddd9"><path d="M 6.4 100.001 L 0 86.001 Q 10.4 79.601 19.2 70.601 Q 28 61.601 32 50.001 Q 28 51.201 23.6 51.201 A 25.582 25.582 0 0 1 15.803 50.062 A 21.038 21.038 0 0 1 7.2 44.801 A 21.591 21.591 0 0 1 0.807 29.417 A 28.344 28.344 0 0 1 0.8 28.801 Q 0.8 16.401 9.6 8.201 Q 18.4 0.001 31.6 0.001 A 32.892 32.892 0 0 1 40.555 1.161 A 24.918 24.918 0 0 1 51.6 7.601 A 24.699 24.699 0 0 1 57.897 18.705 Q 58.956 22.523 59.154 27.066 A 48.917 48.917 0 0 1 59.2 29.201 A 62.262 62.262 0 0 1 49.034 63.103 A 81.137 81.137 0 0 1 43.8 70.401 Q 28.4 89.601 6.4 100.001 Z M 97.6 100.001 L 91.2 86.001 Q 101.6 79.601 110.4 70.601 Q 119.2 61.601 123.2 50.001 Q 119.2 51.201 114.8 51.201 A 25.582 25.582 0 0 1 107.003 50.062 A 21.038 21.038 0 0 1 98.4 44.801 A 21.591 21.591 0 0 1 92.007 29.417 A 28.344 28.344 0 0 1 92 28.801 Q 92 16.401 100.8 8.201 Q 109.6 0.001 122.8 0.001 A 32.892 32.892 0 0 1 131.755 1.161 A 24.918 24.918 0 0 1 142.8 7.601 A 24.699 24.699 0 0 1 149.097 18.705 Q 150.156 22.523 150.354 27.066 A 48.917 48.917 0 0 1 150.4 29.201 A 62.262 62.262 0 0 1 140.234 63.103 A 81.137 81.137 0 0 1 135 70.401 Q 119.6 89.601 97.6 100.001 Z"/></g></svg>