<?xml version="1.0" standalone="no"?>
<!DOCTYPE svg PUBLIC "-//W3C//DTD SVG 20010904//EN"
 "http://www.w3.org/TR/2001/REC-SVG-20010904/DTD/svg10.dtd">
<svg version="1.0" xmlns="http://www.w3.org/2000/svg"
 width="792.000000pt" height="109.000000pt" viewBox="0 0 792.000000 109.000000"
 preserveAspectRatio="xMidYMid meet">

<g transform="translate(0.000000,109.000000) scale(0.100000,-0.100000)"
fill="#ffffff" stroke="none">
<path d="M7579 977 c-45 -30 -61 -63 -56 -115 11 -108 140 -145 212 -61 47 57
26 157 -40 185 -48 20 -77 18 -116 -9z m131 -33 c37 -36 36 -107 -3 -140 -64
-55 -157 -15 -157 66 0 53 14 78 53 95 40 17 74 10 107 -21z"/>
<path d="M7590 875 c0 -51 3 -65 15 -65 9 0 15 9 15 25 0 14 4 25 8 25 5 0 15
-11 22 -25 7 -14 22 -25 33 -25 18 0 18 1 3 25 -15 23 -15 27 -1 41 18 18 18
20 5 45 -8 14 -21 19 -55 19 l-45 0 0 -65z m70 25 c0 -5 -9 -10 -20 -10 -11 0
-20 5 -20 10 0 6 9 10 20 10 11 0 20 -4 20 -10z"/>
<path d="M750 781 l0 -191 -230 0 -230 0 0 -40 0 -40 230 0 230 0 0 -191 0
-190 43 3 42 3 0 415 0 415 -42 3 -43 3 0 -190z"/>
<path d="M2755 957 c-3 -6 -4 -194 -3 -417 l3 -405 195 0 195 0 0 35 0 35
-147 3 -148 3 0 379 0 380 -45 0 c-27 0 -48 -5 -50 -13z"/>
<path d="M3630 550 l0 -420 195 0 195 0 0 40 0 40 -150 0 -150 0 0 380 0 380
-45 0 -45 0 0 -420z"/>
<path d="M4502 658 c3 -359 3 -355 99 -442 147 -132 379 -82 470 102 23 46 24
55 27 350 l3 302 -40 0 -41 0 0 -281 c0 -304 -4 -335 -51 -392 -86 -104 -272
-102 -349 5 -43 59 -50 114 -50 403 l0 265 -36 0 -35 0 3 -312z"/>
<path d="M5460 937 l0 -35 179 -4 179 -3 43 -30 c53 -38 75 -92 60 -146 -10
-34 -72 -102 -116 -126 -18 -10 -9 -28 115 -233 74 -122 140 -224 146 -227 6
-2 30 -3 53 -1 l42 3 -130 214 -130 215 38 41 c53 58 64 81 64 140 0 86 -44
150 -133 197 -42 21 -59 23 -227 26 l-183 4 0 -35z"/>
<path d="M1547 560 c-130 -220 -240 -406 -243 -415 -5 -12 3 -15 43 -15 l49 0
195 330 c106 181 196 329 199 329 3 0 94 -148 203 -329 l199 -330 53 0 54 0
-102 167 c-56 93 -170 279 -252 415 -83 136 -152 247 -155 247 -3 1 -112 -179
-243 -399z"/>
<path d="M6786 550 c-135 -226 -246 -413 -246 -416 0 -2 22 -4 49 -4 l50 0 94
158 c52 86 140 235 196 330 56 94 103 172 105 172 2 0 93 -148 202 -330 l199
-330 53 0 c29 0 51 3 49 8 -30 53 -489 805 -498 816 -4 4 -118 -177 -253 -404z"/>
</g>
</svg>
