<?xml version="1.0" encoding="UTF-8" standalone="no"?>
<!-- Created with Inkscape (http://www.inkscape.org/) -->

<svg
   version="1.1"
   id="svg9"
   xml:space="preserve"
   width="367.03934"
   height="42.680531"
   viewBox="0 0 367.03933 42.68053"
   sodipodi:docname="hallura-logo-brochure.svg"
   inkscape:version="1.1.2 (0a00cf5339, 2022-02-04)"
   xmlns:inkscape="http://www.inkscape.org/namespaces/inkscape"
   xmlns:sodipodi="http://sodipodi.sourceforge.net/DTD/sodipodi-0.dtd"
   xmlns="http://www.w3.org/2000/svg"
   xmlns:svg="http://www.w3.org/2000/svg"><defs
     id="defs13"><clipPath
       clipPathUnits="userSpaceOnUse"
       id="clipPath23"><path
         d="M 0,0 H 841.89 V 595.275 H 0 Z"
         id="path21" /></clipPath><clipPath
       clipPathUnits="userSpaceOnUse"
       id="clipPath37"><path
         d="M 0,0 H 841.89 V 595.276 H 0 Z"
         id="path35" /></clipPath><clipPath
       clipPathUnits="userSpaceOnUse"
       id="clipPath45"><path
         d="M -24.2598,611.142 H 545.74 V -44.8583 H -24.2598 Z"
         id="path43" /></clipPath><linearGradient
       x1="0"
       y1="0"
       x2="1"
       y2="0"
       gradientUnits="userSpaceOnUse"
       gradientTransform="matrix(325.69583,0,0,-325.69583,140.94978,317.62337)"
       spreadMethod="pad"
       id="linearGradient55"><stop
         style="stop-opacity:1;stop-color:#ffffff"
         offset="0"
         id="stop51" /><stop
         style="stop-opacity:0;stop-color:#ffffff"
         offset="1"
         id="stop53" /></linearGradient><mask
       maskUnits="userSpaceOnUse"
       x="0"
       y="0"
       width="1"
       height="1"
       id="mask57"><g
         id="g67"><g
           id="g65"><g
             id="g63"><g
               id="g61"><path
                 d="M -32768,32767 H 32767 V -32768 H -32768 Z"
                 style="fill:url(#linearGradient55);stroke:none"
                 id="path59" /></g></g></g></g></mask><clipPath
       clipPathUnits="userSpaceOnUse"
       id="clipPath71"><path
         d="M -24.2598,611.142 H 545.74 V -44.8583 H -24.2598 Z"
         id="path69" /></clipPath><clipPath
       clipPathUnits="userSpaceOnUse"
       id="clipPath117"><path
         d="M 0,0 H 841.89 V 595.276 H 0 Z"
         id="path115" /></clipPath><clipPath
       clipPathUnits="userSpaceOnUse"
       id="clipPath131"><path
         d="M 0,0 H 841.89 V 595.276 H 0 Z"
         id="path129" /></clipPath><clipPath
       clipPathUnits="userSpaceOnUse"
       id="clipPath117-3"><path
         d="M 0,0 H 841.89 V 595.276 H 0 Z"
         id="path115-6" /></clipPath><clipPath
       clipPathUnits="userSpaceOnUse"
       id="clipPath131-7"><path
         d="M 0,0 H 841.89 V 595.276 H 0 Z"
         id="path129-5" /></clipPath></defs><sodipodi:namedview
     id="namedview11"
     pagecolor="#ffffff"
     bordercolor="#666666"
     borderopacity="1.0"
     inkscape:pageshadow="2"
     inkscape:pageopacity="0.0"
     inkscape:pagecheckerboard="0"
     showgrid="false"
     inkscape:zoom="0.84541922"
     inkscape:cx="230.06338"
     inkscape:cy="173.28681"
     inkscape:window-width="1850"
     inkscape:window-height="1016"
     inkscape:window-x="70"
     inkscape:window-y="27"
     inkscape:window-maximized="1"
     inkscape:current-layer="g15" /><g
     id="g15"
     inkscape:groupmode="layer"
     inkscape:label="Hallura_brochure_a4_H"
     transform="matrix(1.3333333,0,0,-1.3333333,-331.01797,570.19266)"><g
       id="g502"
       transform="translate(188.05848,-75.993197)"><path
         d="m 250.732,500.006 h 10.215 v 2.652 h -10.215 z"
         style="fill:#000000;fill-opacity:1;fill-rule:nonzero;stroke:none"
         id="path123" /><g
         id="g314"><g
           id="g111"><g
             id="g113"
             clip-path="url(#clipPath117-3)"><g
               id="g119"
               transform="translate(270.8269,494.3738)"><path
                 d="m 0,0 c 0,4.576 -4.43,8.284 -9.895,8.284 -0.066,0 -0.133,-0.008 -0.202,-0.008 V 8.23 h 0.192 V 5.631 C -5.68,5.508 -2.938,3.567 -2.938,0 c 0,-2.424 -2.853,-4.917 -5.179,-6.065 l 1.253,-2.083 C -3.842,-6.73 0,-4.083 0,0"
                 style="fill:#000000;fill-opacity:1;fill-rule:nonzero;stroke:none"
                 id="path121" /></g></g></g><g
           id="g288"><g
             id="g95"
             transform="translate(327.4319,471.6277)"><path
               d="M 0,0 -18.766,30.786 -37.162,0 h 3.833 L -18.756,24.544 -3.926,0 Z"
               style="fill:#000000;fill-opacity:1;fill-rule:nonzero;stroke:none"
               id="path97" /></g><g
             id="g267"><g
               id="g91"
               transform="translate(115.5728,502.4133)"><path
                 d="m 0,0 -18.396,-30.786 h 3.834 L 0.01,-6.242 14.837,-30.786 h 3.929 z"
                 style="fill:#000000;fill-opacity:1;fill-rule:nonzero;stroke:none"
                 id="path93" /></g><g
               id="g99"
               transform="translate(80.396,502.5057)"><path
                 d="m 0,0 h -3.061 v -14.007 h -17.13 v -2.743 h 17.13 V -30.76 H 0 Z"
                 style="fill:#000000;fill-opacity:1;fill-rule:nonzero;stroke:none"
                 id="path101" /></g><g
               id="g103"
               transform="translate(165.4646,474.5996)"><path
                 d="m 0,0 h -10.96 v 27.905 h -3.381 V -2.74 h 2.424 V -2.745 H 0 Z"
                 style="fill:#000000;fill-opacity:1;fill-rule:nonzero;stroke:none"
                 id="path105" /></g><g
               id="g107"
               transform="translate(197.6929,474.5996)"><path
                 d="m 0,0 h -10.96 v 27.905 h -3.382 V -2.74 h 2.424 V -2.745 H 0 Z"
                 style="fill:#000000;fill-opacity:1;fill-rule:nonzero;stroke:none"
                 id="path109" /></g><g
               id="g125"><g
                 id="g127"
                 clip-path="url(#clipPath131-7)"><g
                   id="g133"
                   transform="translate(266.6335,488.1051)"><path
                     d="m 0,0 c -0.975,-0.547 -1.917,-1.132 -3.091,-1.222 l 9.216,-15.253 h 3.926 z"
                     style="fill:#000000;fill-opacity:1;fill-rule:nonzero;stroke:none"
                     id="path135" /></g><g
                   id="g137"
                   transform="translate(237.3491,502.5045)"><path
                     d="m 0,0 -2.781,0.005 v -19.249 c 0,-4.814 -3.582,-8.396 -8.395,-8.396 -4.814,0 -8.075,3.582 -8.075,8.396 0,0.671 -0.17,19.182 -0.17,19.182 h -2.637 l -0.046,-19.495 c -0.003,-0.002 -0.011,-0.005 -0.011,-0.007 0,-6.03 4.887,-10.916 10.916,-10.916 6.03,0 11.237,4.886 11.237,10.916 C 0.038,-19.487 0,0 0,0"
                     style="fill:#000000;fill-opacity:1;fill-rule:nonzero;stroke:none"
                     id="path139" /></g><g
                   id="g141"
                   transform="translate(326.5745,499.1497)"><path
                     d="M 0,0 C 0,2.596 1.848,4.488 4.467,4.488 7.062,4.488 8.91,2.596 8.91,0 8.91,-2.595 7.062,-4.509 4.467,-4.509 1.848,-4.509 0,-2.595 0,0 m 0.945,0 c 0,-2.135 1.366,-3.631 3.522,-3.631 2.134,0 3.54,1.496 3.54,3.631 0,2.134 -1.406,3.63 -3.54,3.63 C 2.311,3.63 0.945,2.134 0.945,0 M 5.412,-0.484 6.644,-2.31 5.258,-2.333 4.203,-0.572 H 3.828 V -2.333 H 2.684 v 4.731 h 2.113 c 0.99,0 1.65,-0.572 1.65,-1.474 0,-0.704 -0.396,-1.21 -1.035,-1.408 M 3.828,1.364 V 0.374 H 4.73 c 0.309,0 0.573,0.153 0.573,0.506 0,0.351 -0.264,0.484 -0.573,0.484 z"
                     style="fill:#000000;fill-opacity:1;fill-rule:nonzero;stroke:none"
                     id="path143" /></g></g></g></g></g></g></g></g></svg>
