<?xml version="1.0" encoding="UTF-8" standalone="no"?>
<!-- Created with Inkscape (http://www.inkscape.org/) -->

<svg
   version="1.1"
   id="svg25"
   xml:space="preserve"
   width="224.6472"
   height="82.293335"
   viewBox="0 0 224.6472 82.293334"
   sodipodi:docname="biolink-matrix-by-hallura.svg"
   inkscape:version="1.1.2 (0a00cf5339, 2022-02-04)"
   xmlns:inkscape="http://www.inkscape.org/namespaces/inkscape"
   xmlns:sodipodi="http://sodipodi.sourceforge.net/DTD/sodipodi-0.dtd"
   xmlns="http://www.w3.org/2000/svg"
   xmlns:svg="http://www.w3.org/2000/svg"><defs
     id="defs29"><clipPath
       clipPathUnits="userSpaceOnUse"
       id="clipPath41"><path
         d="M 0,566.929 H 1360.63 V 0 H 0 Z"
         id="path39" /></clipPath><clipPath
       clipPathUnits="userSpaceOnUse"
       id="clipPath185"><path
         d="M 0,0 H 1360.63 V 566.929 H 0 Z"
         id="path183" /></clipPath><clipPath
       clipPathUnits="userSpaceOnUse"
       id="clipPath253"><path
         d="M 0,0 H 1360.63 V 566.929 H 0 Z"
         id="path251" /></clipPath><clipPath
       clipPathUnits="userSpaceOnUse"
       id="clipPath265"><path
         d="m 170.507,126.578 c 0,-16.832 13.645,-30.477 30.476,-30.477 v 0 c 16.831,0 30.476,13.645 30.476,30.477 v 0 c 0,16.832 -13.645,30.476 -30.476,30.476 v 0 c -16.831,0 -30.476,-13.644 -30.476,-30.476"
         id="path263" /></clipPath><clipPath
       clipPathUnits="userSpaceOnUse"
       id="clipPath413"><path
         d="M 0,0 H 1360.63 V 566.929 H 0 Z"
         id="path411" /></clipPath><clipPath
       clipPathUnits="userSpaceOnUse"
       id="clipPath425"><path
         d="m 254.318,92.073 h 48.803 v 48.803 h -48.803 z"
         id="path423" /></clipPath><clipPath
       clipPathUnits="userSpaceOnUse"
       id="clipPath437"><path
         d="M 0,0 H 1360.63 V 566.929 H 0 Z"
         id="path435" /></clipPath><clipPath
       clipPathUnits="userSpaceOnUse"
       id="clipPath449"><path
         d="m 361.939,126.533 c 0,-16.807 13.625,-30.432 30.432,-30.432 v 0 c 16.808,0 30.433,13.625 30.433,30.432 v 0 c 0,16.807 -13.625,30.432 -30.433,30.432 v 0 c -16.807,0 -30.432,-13.625 -30.432,-30.432"
         id="path447" /></clipPath><clipPath
       clipPathUnits="userSpaceOnUse"
       id="clipPath557"><path
         d="M 0,0 H 1360.63 V 566.929 H 0 Z"
         id="path555" /></clipPath><clipPath
       clipPathUnits="userSpaceOnUse"
       id="clipPath569"><path
         d="m 49.989,92.073 h 48.803 v 48.803 H 49.989 Z"
         id="path567" /></clipPath><clipPath
       clipPathUnits="userSpaceOnUse"
       id="clipPath585"><path
         d="M 0,0 H 1360.63 V 566.929 H 0 Z"
         id="path583" /></clipPath><clipPath
       clipPathUnits="userSpaceOnUse"
       id="clipPath753"><path
         d="M 0,0 H 1360.63 V 566.929 H 0 Z"
         id="path751" /></clipPath><clipPath
       clipPathUnits="userSpaceOnUse"
       id="clipPath761"><path
         d="M 711.315,202.609 H 1021.97 V 116.982 H 711.315 Z"
         id="path759" /></clipPath><clipPath
       clipPathUnits="userSpaceOnUse"
       id="clipPath775"><path
         d="M 711.315,285.501 H 1021.97 V 199.874 H 711.315 Z"
         id="path773" /></clipPath><linearGradient
       x1="0"
       y1="0"
       x2="1"
       y2="0"
       gradientUnits="userSpaceOnUse"
       gradientTransform="matrix(0,42.658291,42.658291,0,1108.7637,122.99878)"
       spreadMethod="pad"
       id="linearGradient939"><stop
         style="stop-opacity:1;stop-color:#64676c"
         offset="0"
         id="stop933" /><stop
         style="stop-opacity:1;stop-color:#a18873"
         offset="0.987909"
         id="stop935" /><stop
         style="stop-opacity:1;stop-color:#a18873"
         offset="1"
         id="stop937" /></linearGradient><clipPath
       clipPathUnits="userSpaceOnUse"
       id="clipPath997"><path
         d="M 0,0 H 1360.63 V 566.929 H 0 Z"
         id="path995" /></clipPath><clipPath
       clipPathUnits="userSpaceOnUse"
       id="clipPath1017"><path
         d="M 0,0 H 1360.63 V 566.929 H 0 Z"
         id="path1015" /></clipPath><clipPath
       clipPathUnits="userSpaceOnUse"
       id="clipPath1029"><path
         d="m 163.744,350.197 c 0,-9.286 7.529,-16.814 16.815,-16.814 v 0 c 9.286,0 16.815,7.528 16.815,16.814 v 0 c 0,9.286 -7.529,16.815 -16.815,16.815 v 0 c -9.286,0 -16.815,-7.529 -16.815,-16.815"
         id="path1027" /></clipPath><clipPath
       clipPathUnits="userSpaceOnUse"
       id="clipPath1043"><path
         d="M 0,0 H 1360.63 V 566.929 H 0 Z"
         id="path1041" /></clipPath><clipPath
       clipPathUnits="userSpaceOnUse"
       id="clipPath1095"><path
         d="m 164.119,309.648 c 0,-9.287 7.529,-16.814 16.815,-16.814 v 0 c 9.286,0 16.815,7.527 16.815,16.814 v 0 c 0,9.286 -7.529,16.814 -16.815,16.814 v 0 c -9.286,0 -16.815,-7.528 -16.815,-16.814"
         id="path1093" /></clipPath><clipPath
       clipPathUnits="userSpaceOnUse"
       id="clipPath1109"><path
         d="M 0,0 H 1360.63 V 566.929 H 0 Z"
         id="path1107" /></clipPath><clipPath
       clipPathUnits="userSpaceOnUse"
       id="clipPath1145"><path
         d="M 0,0 H 1360.63 V 566.929 H 0 Z"
         id="path1143" /></clipPath><clipPath
       clipPathUnits="userSpaceOnUse"
       id="clipPath1173"><path
         d="M 0,0 H 1360.63 V 566.929 H 0 Z"
         id="path1171" /></clipPath><clipPath
       clipPathUnits="userSpaceOnUse"
       id="clipPath1187"><path
         d="M 0,0 H 1360.63 V 566.929 H 0 Z"
         id="path1185" /></clipPath><clipPath
       clipPathUnits="userSpaceOnUse"
       id="clipPath425-3"><path
         d="m 254.318,92.073 h 48.803 v 48.803 h -48.803 z"
         id="path423-6" /></clipPath><clipPath
       clipPathUnits="userSpaceOnUse"
       id="clipPath437-1"><path
         d="M 0,0 H 1360.63 V 566.929 H 0 Z"
         id="path435-2" /></clipPath><clipPath
       clipPathUnits="userSpaceOnUse"
       id="clipPath449-9"><path
         d="m 361.939,126.533 c 0,-16.807 13.625,-30.432 30.432,-30.432 v 0 c 16.808,0 30.433,13.625 30.433,30.432 v 0 c 0,16.807 -13.625,30.432 -30.433,30.432 v 0 c -16.807,0 -30.432,-13.625 -30.432,-30.432"
         id="path447-3" /></clipPath><clipPath
       clipPathUnits="userSpaceOnUse"
       id="clipPath557-1"><path
         d="M 0,0 H 1360.63 V 566.929 H 0 Z"
         id="path555-9" /></clipPath></defs><sodipodi:namedview
     id="namedview27"
     pagecolor="#ffffff"
     bordercolor="#666666"
     borderopacity="1.0"
     inkscape:pageshadow="2"
     inkscape:pageopacity="0.0"
     inkscape:pagecheckerboard="0"
     showgrid="false"
     inkscape:zoom="1.4795595"
     inkscape:cx="88.20193"
     inkscape:cy="47.649318"
     inkscape:window-width="1850"
     inkscape:window-height="1016"
     inkscape:window-x="70"
     inkscape:window-y="27"
     inkscape:window-maximized="1"
     inkscape:current-layer="g31" /><g
     id="g31"
     inkscape:groupmode="layer"
     inkscape:label="Brochura Hallura 24x20"
     transform="matrix(1.3333333,0,0,-1.3333333,-320.23759,198.2251)"><g
       id="g4535"
       transform="translate(-14.567,-8.7244701)"><g
         id="g243"
         transform="translate(299.2159,117.7065)"><path
           d="M 0,0 H 69.414"
           style="fill:none;stroke:#000000;stroke-width:1;stroke-linecap:butt;stroke-linejoin:miter;stroke-miterlimit:4;stroke-dasharray:none;stroke-opacity:1"
           id="path245" /></g><g
         id="g419"><g
           id="g421"
           clip-path="url(#clipPath425-3)"><g
             id="g427"
             transform="translate(301.8262,110.5944)"><path
               d="m 0,0 h -0.665 v 8.831 c 0,0.145 -0.037,0.287 -0.107,0.414 l -4.632,8.388 c -0.131,0.202 -0.33,0.352 -0.561,0.422 l -10.616,2.917 -4.974,7.68 c -0.145,0.212 -0.375,0.35 -0.63,0.379 -0.03,0.036 -12.728,0.801 -12.764,0.819 -0.381,0.035 -0.737,-0.197 -0.859,-0.56 l -4.125,-11.279 -6.39,-5.751 c -0.224,-0.201 -0.326,-0.505 -0.268,-0.801 L -44.344,0 h -1.878 c -0.473,0.001 -0.857,-0.381 -0.859,-0.853 -10e-4,-0.473 0.381,-0.857 0.854,-0.859 10e-4,0 0.003,0 0.005,0 h 26.524 c 0.019,-0.007 19.676,0.005 19.698,0 0.479,0 0.867,0.377 0.867,0.856 C 0.867,-0.377 0.479,0.011 0,0 M -20.124,1.744 C -20.384,1.59 -20.543,1.31 -20.543,1.008 V 0 h -22.056 l -2.218,11.312 5.72,5.149 3.365,-1.968 c 0.407,-0.24 0.932,-0.104 1.172,0.304 0.24,0.407 0.104,0.932 -0.304,1.172 -0.001,0 -0.003,0.001 -0.004,0.002 l -3.285,1.922 3.734,10.208 10.666,-0.678 -2.927,-4.716 c -0.132,-0.215 -0.164,-0.476 -0.086,-0.716 l 1.25,-3.852 c 0.154,-0.447 0.642,-0.684 1.089,-0.53 0.435,0.151 0.673,0.618 0.539,1.058 l -1.127,3.474 2.758,4.447 4.417,-6.82 c 0.114,-0.177 0.289,-0.305 0.492,-0.36 l 9.087,-2.498 -7.036,-4.409 c -0.268,-0.168 -0.421,-0.469 -0.4,-0.784 l 0.486,-7.058 z M -2.377,0 h -16.454 v 0.521 l 4.947,2.935 c 0.278,0.165 0.44,0.472 0.418,0.795 l -0.487,7.072 7.487,4.692 4.089,-7.404 z"
               style="fill:#000000;fill-opacity:1;fill-rule:nonzero;stroke:none"
               id="path429" /></g></g></g><g
         id="g431"><g
           id="g433"
           clip-path="url(#clipPath437-1)"><g
             id="g439"
             transform="translate(392.3711,96.1008)"><path
               d="M 0,0 C 16.807,0 30.432,13.625 30.432,30.432 30.432,47.24 16.807,60.865 0,60.865 -16.807,60.865 -30.432,47.24 -30.432,30.432 -30.432,13.625 -16.807,0 0,0"
               style="fill:#ffffff;fill-opacity:1;fill-rule:nonzero;stroke:none"
               id="path441" /></g></g></g><g
         id="g443"><g
           id="g445"
           clip-path="url(#clipPath449-9)"><path
             d="m 373.867,114.463 h 2.003 v 4.808 h -2.003 z"
             style="fill:#db7361;fill-opacity:1;fill-rule:nonzero;stroke:none"
             id="path451" /><g
             id="g453"
             transform="translate(373.8672,114.4626)"><path
               d="m 0,0 v -5.773 l 2.003,0.965 V 0 Z"
               style="fill:#89371d;fill-opacity:1;fill-rule:nonzero;stroke:none"
               id="path455" /></g><path
             d="m 411.835,118.5 h 2.003 v 4.808 h -2.003 z"
             style="fill:#db7361;fill-opacity:1;fill-rule:nonzero;stroke:none"
             id="path457" /><g
             id="g459"
             transform="translate(411.8347,118.4995)"><path
               d="M 0,0 -0.421,-3.826 1.894,-5.536 2.003,0 Z"
               style="fill:#89371d;fill-opacity:1;fill-rule:nonzero;stroke:none"
               id="path461" /></g><g
             id="g463"
             transform="translate(419.4796,137.4297)"><path
               d="M 0,0 -1.134,7.162 -3.667,6.761 -2.533,-1.385 Z"
               style="fill:#db7361;fill-opacity:1;fill-rule:nonzero;stroke:none"
               id="path465" /></g><g
             id="g467"
             transform="translate(418.3452,144.592)"><path
               d="M 0,0 -1.134,7.163 -3.667,6.761 -2.533,-0.401 Z"
               style="fill:#89371d;fill-opacity:1;fill-rule:nonzero;stroke:none"
               id="path469" /></g><path
             d="m 403.272,157.349 h 2.003 v 4.491 h -2.003 z"
             style="fill:#f19c9a;fill-opacity:1;fill-rule:nonzero;stroke:none"
             id="path471" /><path
             d="m 403.272,152.858 h 2.003 v 4.491 h -2.003 z"
             style="fill:#89371d;fill-opacity:1;fill-rule:nonzero;stroke:none"
             id="path473" /><g
             id="g475"
             transform="translate(386.6805,159.9412)"><path
               d="m 0,0 -3.248,-5.001 1.68,-1.091 3.248,5.001 z"
               style="fill:#db7361;fill-opacity:1;fill-rule:nonzero;stroke:none"
               id="path477" /></g><g
             id="g479"
             transform="translate(383.4327,154.9399)"><path
               d="m 0,0 -3.248,-5.001 2.164,-1.072 2.764,4.982 z"
               style="fill:#89371d;fill-opacity:1;fill-rule:nonzero;stroke:none"
               id="path481" /></g><path
             d="m 340.307,159.232 h 2.003 v 4.49 h -2.003 z"
             style="fill:#f19c9a;fill-opacity:1;fill-rule:nonzero;stroke:none"
             id="path483" /><path
             d="m 340.307,154.741 h 2.003 v 4.491 h -2.003 z"
             style="fill:#b68372;fill-opacity:1;fill-rule:nonzero;stroke:none"
             id="path485" /><path
             d="m 351.42,185.093 h 2.003 v 5.129 h -2.003 z"
             style="fill:#f19c9a;fill-opacity:1;fill-rule:nonzero;stroke:none"
             id="path487" /><path
             d="m 351.42,179.964 h 2.003 v 5.129 h -2.003 z"
             style="fill:#b68372;fill-opacity:1;fill-rule:nonzero;stroke:none"
             id="path489" /><g
             id="g491"
             transform="translate(333.6514,135.549)"><path
               d="m 0,0 -5.881,-4.431 1.206,-1.6 5.88,4.432 z"
               style="fill:#f19c9a;fill-opacity:1;fill-rule:nonzero;stroke:none"
               id="path493" /></g><g
             id="g495"
             transform="translate(327.7705,131.1174)"><path
               d="m 0,0 -5.881,-4.431 1.206,-1.6 5.88,4.432 z"
               style="fill:#b68372;fill-opacity:1;fill-rule:nonzero;stroke:none"
               id="path497" /></g><g
             id="g499"
             transform="translate(356.5488,133.5874)"><path
               d="M 0,0 2.892,6.65 1.293,7.345 -1.598,0.695 Z"
               style="fill:#f19c9a;fill-opacity:1;fill-rule:nonzero;stroke:none"
               id="path501" /></g><g
             id="g503"
             transform="translate(359.4403,140.2378)"><path
               d="M 0,0 2.892,6.65 1.293,7.345 -1.598,0.695 Z"
               style="fill:#b68372;fill-opacity:1;fill-rule:nonzero;stroke:none"
               id="path505" /></g><g
             id="g507"
             transform="translate(319.7908,130.3835)"><path
               d="m 0,0 c 0,0 8.548,-17.562 26.5,-16.242 17.952,1.321 26.299,6.839 42.742,6.839 25.645,0 41.032,-23.936 41.032,-23.936"
               style="fill:none;stroke:#8fa4d5;stroke-width:1.282;stroke-linecap:butt;stroke-linejoin:miter;stroke-miterlimit:4;stroke-dasharray:none;stroke-opacity:1"
               id="path509" /></g><g
             id="g511"
             transform="translate(342.8714,99.6094)"><path
               d="m 0,0 c 0,0 25.59,7.907 35.048,10.258 15.388,3.825 33.339,-0.855 41.888,-11.968 8.548,-11.113 6.838,-9.403 6.838,-9.403"
               style="fill:none;stroke:#8fa4d5;stroke-width:1.282;stroke-linecap:butt;stroke-linejoin:miter;stroke-miterlimit:4;stroke-dasharray:none;stroke-opacity:1"
               id="path513" /></g><g
             id="g515"
             transform="translate(417.2424,91.9158)"><path
               d="M 0,0 C 0,0 -5.984,-7.694 -15.387,-2.564 -24.79,2.564 -35.903,16.242 -50.436,11.113 -64.968,5.984 -75.134,-5.951 -91.468,0.855 c -20.516,8.548 -6.368,28.209 -6.368,28.209"
               style="fill:none;stroke:#8fa4d5;stroke-width:1.282;stroke-linecap:butt;stroke-linejoin:miter;stroke-miterlimit:4;stroke-dasharray:none;stroke-opacity:1"
               id="path517" /></g><g
             id="g519"
             transform="translate(321.5004,85.0771)"><path
               d="m 0,0 c 0,0 23.935,-9.403 37.613,3.419 13.677,12.823 5.061,26.5 -6.839,35.476 -11.899,8.976 -34.806,14.96 -32.868,34.621 0,0 1.239,6.839 3.804,10.258"
               style="fill:none;stroke:#8fa4d5;stroke-width:1.282;stroke-linecap:butt;stroke-linejoin:miter;stroke-miterlimit:4;stroke-dasharray:none;stroke-opacity:1"
               id="path521" /></g><g
             id="g523"
             transform="translate(308.6779,173.9802)"><path
               d="m 0,0 c 0,0 5.129,-14.532 22.226,-7.694 17.097,6.839 19.661,10.259 30.774,1.71 11.113,-8.548 14.532,-23.935 36.758,-19.661 22.226,4.274 23.081,8.548 23.081,8.548"
               style="fill:none;stroke:#8fa4d5;stroke-width:1.282;stroke-linecap:butt;stroke-linejoin:miter;stroke-miterlimit:4;stroke-dasharray:none;stroke-opacity:1"
               id="path525" /></g><g
             id="g527"
             transform="translate(329.194,172.2705)"><path
               d="m 0,0 c 0,0 23.935,15.387 33.339,2.565 9.403,-12.823 16.763,-31.629 32.744,-39.323 15.982,-7.693 21.965,2.018 31.369,6.839 9.403,4.821 14.532,4.821 14.532,4.821"
               style="fill:none;stroke:#8fa4d5;stroke-width:1.282;stroke-linecap:butt;stroke-linejoin:miter;stroke-miterlimit:4;stroke-dasharray:none;stroke-opacity:1"
               id="path529" /></g><g
             id="g531"
             transform="translate(377.9198,187.6577)"><path
               d="m 0,0 c 0,0 1.71,-34.194 27.355,-25.645 25.645,8.548 29.919,5.129 37.613,-6.839 7.693,-11.968 6.838,-13.677 6.838,-13.677"
               style="fill:none;stroke:#8fa4d5;stroke-width:1.282;stroke-linecap:butt;stroke-linejoin:miter;stroke-miterlimit:4;stroke-dasharray:none;stroke-opacity:1"
               id="path533" /></g><g
             id="g535"
             transform="translate(327.4843,186.803)"><path
               d="m 0,0 c 0,0 32.142,12.114 42.4,-8.549 10.258,-20.662 29.406,-24.79 37.1,-25.645 7.694,-0.855 31.629,-6.8 34.194,-17.097 2.564,-10.295 0.414,-12.822 0.414,-12.822"
               style="fill:none;stroke:#8fa4d5;stroke-width:1.282;stroke-linecap:butt;stroke-linejoin:miter;stroke-miterlimit:4;stroke-dasharray:none;stroke-opacity:1"
               id="path537" /></g><g
             id="g539"
             transform="translate(309.5327,150.8997)"><path
               d="m 0,0 c 0,0 23.935,12.823 33.339,12.823 9.403,0 16.18,-11.44 21.363,-14.055 8.556,-4.316 17.959,-3.897 17.959,-3.897"
               style="fill:none;stroke:#8fa4d5;stroke-width:1.282;stroke-linecap:butt;stroke-linejoin:miter;stroke-miterlimit:4;stroke-dasharray:none;stroke-opacity:1"
               id="path541" /></g><g
             id="g543"
             transform="translate(314.1488,139.7866)"><path
               d="m 0,0 c 0,0 20.174,17.106 32.142,14.964 11.968,-2.141 33.339,-23.085 43.597,-26.932 10.258,-3.846 17.951,-7.956 29.919,-2.602 11.968,5.354 13.678,8.586 13.678,8.586"
               style="fill:none;stroke:#8fa4d5;stroke-width:1.282;stroke-linecap:butt;stroke-linejoin:miter;stroke-miterlimit:4;stroke-dasharray:none;stroke-opacity:1"
               id="path545" /></g><g
             id="g547"
             transform="translate(333.4682,146.6255)"><path
               d="m 0,0 c 0,0 -0.513,-11.968 23.081,-12.823 23.593,-0.854 39.322,-12.757 35.903,-22.193 -3.419,-9.436 -29.958,-28.242 -14.532,-35.936 15.426,-7.693 39.66,4.275 39.66,4.275"
               style="fill:none;stroke:#8fa4d5;stroke-width:1.282;stroke-linecap:butt;stroke-linejoin:miter;stroke-miterlimit:4;stroke-dasharray:none;stroke-opacity:1"
               id="path549" /></g></g></g><g
         id="g551"><g
           id="g553"
           clip-path="url(#clipPath557-1)"><g
             id="g559"
             transform="translate(392.3711,96.1008)"><path
               d="M 0,0 C 16.807,0 30.432,13.625 30.432,30.432 30.432,47.24 16.807,60.865 0,60.865 -16.807,60.865 -30.432,47.24 -30.432,30.432 -30.432,13.625 -16.807,0 0,0 Z"
               style="fill:none;stroke:#000000;stroke-width:0.855;stroke-linecap:butt;stroke-linejoin:miter;stroke-miterlimit:4;stroke-dasharray:none;stroke-opacity:1"
               id="path561" /></g></g></g></g></g></svg>
