<?xml version="1.0" encoding="UTF-8" standalone="no"?>
<!-- Created with Inkscape (http://www.inkscape.org/) -->

<svg
   version="1.1"
   id="svg25"
   xml:space="preserve"
   width="241.9612"
   height="82.410667"
   viewBox="0 0 241.96119 82.410667"
   sodipodi:docname="ha-bdde-crosslinked.svg"
   inkscape:version="1.1.2 (0a00cf5339, 2022-02-04)"
   xmlns:inkscape="http://www.inkscape.org/namespaces/inkscape"
   xmlns:sodipodi="http://sodipodi.sourceforge.net/DTD/sodipodi-0.dtd"
   xmlns="http://www.w3.org/2000/svg"
   xmlns:svg="http://www.w3.org/2000/svg"><defs
     id="defs29"><clipPath
       clipPathUnits="userSpaceOnUse"
       id="clipPath41"><path
         d="M 0,566.929 H 1360.63 V 0 H 0 Z"
         id="path39" /></clipPath><clipPath
       clipPathUnits="userSpaceOnUse"
       id="clipPath185"><path
         d="M 0,0 H 1360.63 V 566.929 H 0 Z"
         id="path183" /></clipPath><clipPath
       clipPathUnits="userSpaceOnUse"
       id="clipPath253"><path
         d="M 0,0 H 1360.63 V 566.929 H 0 Z"
         id="path251" /></clipPath><clipPath
       clipPathUnits="userSpaceOnUse"
       id="clipPath265"><path
         d="m 170.507,126.578 c 0,-16.832 13.645,-30.477 30.476,-30.477 v 0 c 16.831,0 30.476,13.645 30.476,30.477 v 0 c 0,16.832 -13.645,30.476 -30.476,30.476 v 0 c -16.831,0 -30.476,-13.644 -30.476,-30.476"
         id="path263" /></clipPath><clipPath
       clipPathUnits="userSpaceOnUse"
       id="clipPath413"><path
         d="M 0,0 H 1360.63 V 566.929 H 0 Z"
         id="path411" /></clipPath><clipPath
       clipPathUnits="userSpaceOnUse"
       id="clipPath425"><path
         d="m 254.318,92.073 h 48.803 v 48.803 h -48.803 z"
         id="path423" /></clipPath><clipPath
       clipPathUnits="userSpaceOnUse"
       id="clipPath437"><path
         d="M 0,0 H 1360.63 V 566.929 H 0 Z"
         id="path435" /></clipPath><clipPath
       clipPathUnits="userSpaceOnUse"
       id="clipPath449"><path
         d="m 361.939,126.533 c 0,-16.807 13.625,-30.432 30.432,-30.432 v 0 c 16.808,0 30.433,13.625 30.433,30.432 v 0 c 0,16.807 -13.625,30.432 -30.433,30.432 v 0 c -16.807,0 -30.432,-13.625 -30.432,-30.432"
         id="path447" /></clipPath><clipPath
       clipPathUnits="userSpaceOnUse"
       id="clipPath557"><path
         d="M 0,0 H 1360.63 V 566.929 H 0 Z"
         id="path555" /></clipPath><clipPath
       clipPathUnits="userSpaceOnUse"
       id="clipPath569"><path
         d="m 49.989,92.073 h 48.803 v 48.803 H 49.989 Z"
         id="path567" /></clipPath><clipPath
       clipPathUnits="userSpaceOnUse"
       id="clipPath585"><path
         d="M 0,0 H 1360.63 V 566.929 H 0 Z"
         id="path583" /></clipPath><clipPath
       clipPathUnits="userSpaceOnUse"
       id="clipPath753"><path
         d="M 0,0 H 1360.63 V 566.929 H 0 Z"
         id="path751" /></clipPath><clipPath
       clipPathUnits="userSpaceOnUse"
       id="clipPath761"><path
         d="M 711.315,202.609 H 1021.97 V 116.982 H 711.315 Z"
         id="path759" /></clipPath><clipPath
       clipPathUnits="userSpaceOnUse"
       id="clipPath775"><path
         d="M 711.315,285.501 H 1021.97 V 199.874 H 711.315 Z"
         id="path773" /></clipPath><linearGradient
       x1="0"
       y1="0"
       x2="1"
       y2="0"
       gradientUnits="userSpaceOnUse"
       gradientTransform="matrix(0,42.658291,42.658291,0,1108.7637,122.99878)"
       spreadMethod="pad"
       id="linearGradient939"><stop
         style="stop-opacity:1;stop-color:#64676c"
         offset="0"
         id="stop933" /><stop
         style="stop-opacity:1;stop-color:#a18873"
         offset="0.987909"
         id="stop935" /><stop
         style="stop-opacity:1;stop-color:#a18873"
         offset="1"
         id="stop937" /></linearGradient><clipPath
       clipPathUnits="userSpaceOnUse"
       id="clipPath997"><path
         d="M 0,0 H 1360.63 V 566.929 H 0 Z"
         id="path995" /></clipPath><clipPath
       clipPathUnits="userSpaceOnUse"
       id="clipPath1017"><path
         d="M 0,0 H 1360.63 V 566.929 H 0 Z"
         id="path1015" /></clipPath><clipPath
       clipPathUnits="userSpaceOnUse"
       id="clipPath1029"><path
         d="m 163.744,350.197 c 0,-9.286 7.529,-16.814 16.815,-16.814 v 0 c 9.286,0 16.815,7.528 16.815,16.814 v 0 c 0,9.286 -7.529,16.815 -16.815,16.815 v 0 c -9.286,0 -16.815,-7.529 -16.815,-16.815"
         id="path1027" /></clipPath><clipPath
       clipPathUnits="userSpaceOnUse"
       id="clipPath1043"><path
         d="M 0,0 H 1360.63 V 566.929 H 0 Z"
         id="path1041" /></clipPath><clipPath
       clipPathUnits="userSpaceOnUse"
       id="clipPath1095"><path
         d="m 164.119,309.648 c 0,-9.287 7.529,-16.814 16.815,-16.814 v 0 c 9.286,0 16.815,7.527 16.815,16.814 v 0 c 0,9.286 -7.529,16.814 -16.815,16.814 v 0 c -9.286,0 -16.815,-7.528 -16.815,-16.814"
         id="path1093" /></clipPath><clipPath
       clipPathUnits="userSpaceOnUse"
       id="clipPath1109"><path
         d="M 0,0 H 1360.63 V 566.929 H 0 Z"
         id="path1107" /></clipPath><clipPath
       clipPathUnits="userSpaceOnUse"
       id="clipPath1145"><path
         d="M 0,0 H 1360.63 V 566.929 H 0 Z"
         id="path1143" /></clipPath><clipPath
       clipPathUnits="userSpaceOnUse"
       id="clipPath1173"><path
         d="M 0,0 H 1360.63 V 566.929 H 0 Z"
         id="path1171" /></clipPath><clipPath
       clipPathUnits="userSpaceOnUse"
       id="clipPath1187"><path
         d="M 0,0 H 1360.63 V 566.929 H 0 Z"
         id="path1185" /></clipPath><clipPath
       clipPathUnits="userSpaceOnUse"
       id="clipPath253-1"><path
         d="M 0,0 H 1360.63 V 566.929 H 0 Z"
         id="path251-8" /></clipPath><clipPath
       clipPathUnits="userSpaceOnUse"
       id="clipPath265-7"><path
         d="m 170.507,126.578 c 0,-16.832 13.645,-30.477 30.476,-30.477 v 0 c 16.831,0 30.476,13.645 30.476,30.477 v 0 c 0,16.832 -13.645,30.476 -30.476,30.476 v 0 c -16.831,0 -30.476,-13.644 -30.476,-30.476"
         id="path263-9" /></clipPath><clipPath
       clipPathUnits="userSpaceOnUse"
       id="clipPath413-2"><path
         d="M 0,0 H 1360.63 V 566.929 H 0 Z"
         id="path411-0" /></clipPath><clipPath
       clipPathUnits="userSpaceOnUse"
       id="clipPath569-2"><path
         d="m 49.989,92.073 h 48.803 v 48.803 H 49.989 Z"
         id="path567-3" /></clipPath></defs><sodipodi:namedview
     id="namedview27"
     pagecolor="#ffffff"
     bordercolor="#666666"
     borderopacity="1.0"
     inkscape:pageshadow="2"
     inkscape:pageopacity="0.0"
     inkscape:pagecheckerboard="0"
     showgrid="false"
     inkscape:zoom="1.4795595"
     inkscape:cx="76.712023"
     inkscape:cy="118.61639"
     inkscape:window-width="1850"
     inkscape:window-height="1016"
     inkscape:window-x="70"
     inkscape:window-y="27"
     inkscape:window-maximized="1"
     inkscape:current-layer="g31" /><g
     id="g31"
     inkscape:groupmode="layer"
     inkscape:label="Brochura Hallura 24x20"
     transform="matrix(1.3333333,0,0,-1.3333333,-60.154399,238.1605)"><g
       id="g3517"
       transform="translate(-5.3002977,21.139082)"><g
         id="g239"
         transform="translate(95.5282,117.7065)"><path
           d="M 0,0 H 83.827"
           style="fill:none;stroke:#000000;stroke-width:1;stroke-linecap:butt;stroke-linejoin:miter;stroke-miterlimit:4;stroke-dasharray:none;stroke-opacity:1"
           id="path241" /></g><g
         id="g247"><g
           id="g249"
           clip-path="url(#clipPath253-1)"><g
             id="g255"
             transform="translate(200.983,96.1013)"><path
               d="M 0,0 C 16.832,0 30.476,13.645 30.476,30.476 30.476,47.308 16.832,60.952 0,60.952 -16.832,60.952 -30.476,47.308 -30.476,30.476 -30.476,13.645 -16.832,0 0,0"
               style="fill:#ffffff;fill-opacity:1;fill-rule:nonzero;stroke:none"
               id="path257" /></g></g></g><g
         id="g259"><g
           id="g261"
           clip-path="url(#clipPath265-7)"><g
             id="g267"
             transform="translate(177.7954,124.5879)"><path
               d="m 0,0 -6.319,-4.123 6.695,2.061 z"
               style="fill:#89371d;fill-opacity:1;fill-rule:nonzero;stroke:none"
               id="path269" /></g><g
             id="g271"
             transform="translate(185.2206,152.0767)"><path
               d="M 0,0 5.498,5.043 -0.028,3.236 Z"
               style="fill:#89371d;fill-opacity:1;fill-rule:nonzero;stroke:none"
               id="path273" /></g><g
             id="g275"
             transform="translate(203.7469,178.1914)"><path
               d="m 0,0 v -9.621 l 4.542,8.246 z"
               style="fill:#89371d;fill-opacity:1;fill-rule:nonzero;stroke:none"
               id="path277" /></g><g
             id="g279"
             transform="translate(214.9393,168.5703)"><path
               d="M 0,0 6.017,1.375 0,-2.749 Z"
               style="fill:#89371d;fill-opacity:1;fill-rule:nonzero;stroke:none"
               id="path281" /></g><g
             id="g283"
             transform="translate(221.9663,164.1035)"><path
               d="M 0,0 9.986,-7.903 -2.384,-3.78 Z"
               style="fill:#89371d;fill-opacity:1;fill-rule:nonzero;stroke:none"
               id="path285" /></g><g
             id="g287"
             transform="translate(207.2117,153.4512)"><path
               d="M 0,0 8.415,-4.342 7.728,-6.872 Z"
               style="fill:#89371d;fill-opacity:1;fill-rule:nonzero;stroke:none"
               id="path289" /></g><g
             id="g291"
             transform="translate(231.0436,144.1821)"><path
               d="M 0,0 4.13,-1.727 H -0.466 Z"
               style="fill:#89371d;fill-opacity:1;fill-rule:nonzero;stroke:none"
               id="path293" /></g><g
             id="g295"
             transform="translate(214.084,169.9448)"><path
               d="M 0,0 -6.872,-15.347 -3.436,5.498 Z"
               style="fill:#89371d;fill-opacity:1;fill-rule:nonzero;stroke:none"
               id="path297" /></g><g
             id="g299"
             transform="translate(207.9946,128.7114)"><path
               d="m 0,0 8.838,-6.185 -9.621,3.092 z"
               style="fill:#89371d;fill-opacity:1;fill-rule:nonzero;stroke:none"
               id="path301" /></g><g
             id="g303"
             transform="translate(176.9738,131.4604)"><path
               d="M 0,0 9.181,1.374 0,-2.749 Z"
               style="fill:#89371d;fill-opacity:1;fill-rule:nonzero;stroke:none"
               id="path305" /></g><g
             id="g307"
             transform="translate(189.0695,125.9624)"><path
               d="M 0,0 6.979,2.749 0.504,-3.049 Z"
               style="fill:#89371d;fill-opacity:1;fill-rule:nonzero;stroke:none"
               id="path309" /></g><g
             id="g311"
             transform="translate(201.7139,110.8433)"><path
               d="M 0,0 6.872,-0.888 -0.536,-2.486 Z"
               style="fill:#89371d;fill-opacity:1;fill-rule:nonzero;stroke:none"
               id="path313" /></g><g
             id="g315"
             transform="translate(190.7184,106.0537)"><path
               d="M 0,0 9.621,-6.411 -1.145,-2.083 Z"
               style="fill:#89371d;fill-opacity:1;fill-rule:nonzero;stroke:none"
               id="path317" /></g><g
             id="g319"
             transform="translate(212.7095,102.8481)"><path
               d="M 0,0 3.759,-11.247 -2.062,0 Z"
               style="fill:#89371d;fill-opacity:1;fill-rule:nonzero;stroke:none"
               id="path321" /></g><g
             id="g323"
             transform="translate(223.7051,106.7202)"><path
               d="M 0,0 9.525,9.621 2.406,-2.749 Z"
               style="fill:#89371d;fill-opacity:1;fill-rule:nonzero;stroke:none"
               id="path325" /></g><g
             id="g327"
             transform="translate(219.5818,101.2222)"><path
               d="M 0,0 8.247,1.626 1.374,-2.749 Z"
               style="fill:#89371d;fill-opacity:1;fill-rule:nonzero;stroke:none"
               id="path329" /></g><g
             id="g331"
             transform="translate(225.5746,86.1035)"><path
               d="M 0,0 V -6.873 L -1.869,-0.66 Z"
               style="fill:#89371d;fill-opacity:1;fill-rule:nonzero;stroke:none"
               id="path333" /></g><g
             id="g335"
             transform="translate(212.7095,81.98)"><path
               d="M 0,0 -2.062,-4.123 V 0.702 Z"
               style="fill:#89371d;fill-opacity:1;fill-rule:nonzero;stroke:none"
               id="path337" /></g><g
             id="g339"
             transform="translate(182.4716,82.6675)"><path
               d="M 0,0 5.498,2.776 -0.907,1.388 Z"
               style="fill:#89371d;fill-opacity:1;fill-rule:nonzero;stroke:none"
               id="path341" /></g><g
             id="g343"
             transform="translate(186.595,175.4424)"><path
               d="m 0,0 c 0,0 8.247,6.873 19.242,2.749 10.996,-4.123 9.621,-16.493 9.621,-16.493"
               style="fill:none;stroke:#8fa4d5;stroke-width:1.374;stroke-linecap:butt;stroke-linejoin:miter;stroke-miterlimit:4;stroke-dasharray:none;stroke-opacity:1"
               id="path345" /></g><g
             id="g347"
             transform="translate(170.1016,149.3281)"><path
               d="M 0,0 C 0,0 10.996,-13.745 24.74,-5.498 38.485,2.749 35.736,10.566 52.229,5.498"
               style="fill:none;stroke:#8fa4d5;stroke-width:1.374;stroke-linecap:butt;stroke-linejoin:miter;stroke-miterlimit:4;stroke-dasharray:none;stroke-opacity:1"
               id="path349" /></g><g
             id="g351"
             transform="translate(201.1779,161.6226)"><path
               d="m 0,0 c 0,0 -2.213,-10.92 3.285,-21.916 5.498,-10.995 3.075,-18.089 -1.899,-27.6 -4.973,-9.51 -2.499,-17.756 3.273,-21.88"
               style="fill:none;stroke:#8fa4d5;stroke-width:1.374;stroke-linecap:butt;stroke-linejoin:miter;stroke-miterlimit:4;stroke-dasharray:none;stroke-opacity:1"
               id="path353" /></g><g
             id="g355"
             transform="translate(181.0972,117.7158)"><path
               d="m 0,0 c 0,0 -8.247,12.943 -2.749,17.868 5.498,4.924 11.225,2.749 17.701,-6.872 2.427,-3.607 13.651,-18.114 26.483,-1.277 13.543,17.77 9.42,43.474 9.42,43.474"
               style="fill:none;stroke:#8fa4d5;stroke-width:1.374;stroke-linecap:butt;stroke-linejoin:miter;stroke-miterlimit:4;stroke-dasharray:none;stroke-opacity:1"
               id="path357" /></g><g
             id="g359"
             transform="translate(192.0928,83.3545)"><path
               d="m 0,0 c 0,0 -7.752,1.596 -5.938,11.106 1.815,9.511 7.312,15.009 7.312,15.009"
               style="fill:none;stroke:#8fa4d5;stroke-width:1.374;stroke-linecap:butt;stroke-linejoin:miter;stroke-miterlimit:4;stroke-dasharray:none;stroke-opacity:1"
               id="path361" /></g><g
             id="g363"
             transform="translate(189.5731,145.2046)"><path
               d="M 0,0 C 0,0 7.658,-8.247 9.632,-15.119 11.605,-21.991 8.018,-27.858 8.018,-27.858"
               style="fill:none;stroke:#8fa4d5;stroke-width:1.374;stroke-linecap:butt;stroke-linejoin:miter;stroke-miterlimit:4;stroke-dasharray:none;stroke-opacity:1"
               id="path365" /></g><g
             id="g367"
             transform="translate(178.3483,140.5078)"><path
               d="M 0,0 C 0,0 15.119,-10.186 9.621,-21.417 4.123,-32.649 -0.384,-33.788 -0.384,-33.788"
               style="fill:none;stroke:#8fa4d5;stroke-width:1.374;stroke-linecap:butt;stroke-linejoin:miter;stroke-miterlimit:4;stroke-dasharray:none;stroke-opacity:1"
               id="path369" /></g><g
             id="g371"
             transform="translate(222.5325,107.8589)"><path
               d="M 0,0 12.168,-11.541"
               style="fill:none;stroke:#8fa4d5;stroke-width:1.374;stroke-linecap:butt;stroke-linejoin:miter;stroke-miterlimit:4;stroke-dasharray:none;stroke-opacity:1"
               id="path373" /></g><g
             id="g375"
             transform="translate(235.1736,99.8477)"><path
               d="M 0,0 C 0,0 3.449,10.996 -4.596,19.243 -12.641,27.489 -18.973,37.11 -18.973,37.11"
               style="fill:none;stroke:#8fa4d5;stroke-width:1.374;stroke-linecap:butt;stroke-linejoin:miter;stroke-miterlimit:4;stroke-dasharray:none;stroke-opacity:1"
               id="path377" /></g><g
             id="g379"
             transform="translate(222.5325,118.4893)"><path
               d="M 0,0 6.084,8.848"
               style="fill:none;stroke:#8fa4d5;stroke-width:1.374;stroke-linecap:butt;stroke-linejoin:miter;stroke-miterlimit:4;stroke-dasharray:none;stroke-opacity:1"
               id="path381" /></g><g
             id="g383"
             transform="translate(233.2297,135.5835)"><path
               d="m 0,0 c 0,0 6.723,13.745 -1.401,26.115 -8.124,12.37 -14.996,15.118 -14.996,15.118"
               style="fill:none;stroke:#8fa4d5;stroke-width:1.374;stroke-linecap:butt;stroke-linejoin:miter;stroke-miterlimit:4;stroke-dasharray:none;stroke-opacity:1"
               id="path385" /></g><g
             id="g387"
             transform="translate(215.6266,144.1821)"><path
               d="m 0,0 c 0,0 -0.067,11.867 5.209,18.815 5.276,6.948 9.742,11.071 9.742,11.071"
               style="fill:none;stroke:#8fa4d5;stroke-width:1.374;stroke-linecap:butt;stroke-linejoin:miter;stroke-miterlimit:4;stroke-dasharray:none;stroke-opacity:1"
               id="path389" /></g><g
             id="g391"
             transform="translate(208.2891,102.0884)"><path
               d="m 0,0 c 0,0 8.892,4.221 11.568,-2.446 2.675,-6.667 -5.613,-9.975 -5.613,-9.975"
               style="fill:none;stroke:#8fa4d5;stroke-width:1.374;stroke-linecap:butt;stroke-linejoin:miter;stroke-miterlimit:4;stroke-dasharray:none;stroke-opacity:1"
               id="path393" /></g><g
             id="g395"
             transform="translate(204.5005,87.478)"><path
               d="m 0,0 c 0,0 6.03,-8.601 15.356,-4.301 l 8.76,5.852"
               style="fill:none;stroke:#8fa4d5;stroke-width:1.374;stroke-linecap:butt;stroke-linejoin:miter;stroke-miterlimit:4;stroke-dasharray:none;stroke-opacity:1"
               id="path397" /></g><g
             id="g399"
             transform="translate(183.8279,157.5747)"><path
               d="M 0,0 2.767,-8.247"
               style="fill:none;stroke:#8fa4d5;stroke-width:1.374;stroke-linecap:butt;stroke-linejoin:miter;stroke-miterlimit:4;stroke-dasharray:none;stroke-opacity:1"
               id="path401" /></g><g
             id="g403"
             transform="translate(176.9738,94.4609)"><path
               d="M 0,0 5.498,-13.175"
               style="fill:none;stroke:#8fa4d5;stroke-width:1.374;stroke-linecap:butt;stroke-linejoin:miter;stroke-miterlimit:4;stroke-dasharray:none;stroke-opacity:1"
               id="path405" /></g></g></g><g
         id="g407"><g
           id="g409"
           clip-path="url(#clipPath413-2)"><g
             id="g415"
             transform="translate(200.983,96.1013)"><path
               d="M 0,0 C 16.832,0 30.476,13.645 30.476,30.476 30.476,47.308 16.832,60.952 0,60.952 -16.832,60.952 -30.476,47.308 -30.476,30.476 -30.476,13.645 -16.832,0 0,0 Z"
               style="fill:none;stroke:#000000;stroke-width:0.856;stroke-linecap:butt;stroke-linejoin:miter;stroke-miterlimit:4;stroke-dasharray:none;stroke-opacity:1"
               id="path417" /></g></g></g><g
         id="g563"><g
           id="g565"
           clip-path="url(#clipPath569-2)"><g
             id="g571"
             transform="translate(97.4971,110.5944)"><path
               d="m 0,0 h -0.665 v 8.831 c 0,0.145 -0.037,0.287 -0.107,0.414 l -4.632,8.388 c -0.131,0.202 -0.33,0.352 -0.561,0.422 l -10.616,2.917 -4.974,7.68 c -0.145,0.212 -0.375,0.35 -0.63,0.379 -0.03,0.036 -12.728,0.801 -12.764,0.819 -0.381,0.035 -0.737,-0.197 -0.859,-0.56 l -4.125,-11.279 -6.39,-5.751 c -0.224,-0.201 -0.326,-0.505 -0.268,-0.801 L -44.344,0 h -1.878 c -0.473,0.001 -0.857,-0.381 -0.859,-0.853 -10e-4,-0.473 0.381,-0.857 0.854,-0.859 10e-4,0 0.003,0 0.005,0 h 26.524 c 0.019,-0.007 19.676,0.005 19.698,0 0.479,0 0.867,0.377 0.867,0.856 C 0.867,-0.377 0.479,0.011 0,0 M -20.124,1.744 C -20.384,1.59 -20.543,1.31 -20.543,1.008 V 0 h -22.056 l -2.218,11.312 5.72,5.149 3.365,-1.968 c 0.407,-0.24 0.932,-0.104 1.172,0.304 0.24,0.407 0.104,0.932 -0.304,1.172 -0.001,0 -0.003,0.001 -0.004,0.002 l -3.285,1.922 3.734,10.208 10.666,-0.678 -2.927,-4.716 c -0.132,-0.215 -0.164,-0.476 -0.086,-0.716 l 1.25,-3.852 c 0.154,-0.447 0.642,-0.684 1.089,-0.53 0.435,0.151 0.673,0.618 0.539,1.058 l -1.127,3.474 2.758,4.447 4.417,-6.82 c 0.114,-0.177 0.289,-0.305 0.492,-0.36 l 9.087,-2.498 -7.036,-4.409 c -0.268,-0.168 -0.421,-0.469 -0.4,-0.784 l 0.486,-7.058 z M -2.377,0 h -16.454 v 0.521 l 4.947,2.935 c 0.278,0.165 0.44,0.472 0.418,0.795 l -0.487,7.072 7.487,4.692 4.089,-7.404 z"
               style="fill:#000000;fill-opacity:1;fill-rule:nonzero;stroke:none"
               id="path573" /></g></g></g><g
         id="g575"
         transform="translate(72.1496,129.5513)"><path
           d="m 0,0 -11,-4 4,-16"
           style="fill:none;stroke:#000000;stroke-width:1.7;stroke-linecap:butt;stroke-linejoin:miter;stroke-miterlimit:4;stroke-dasharray:none;stroke-opacity:1"
           id="path577" /></g><g
         id="g589"
         transform="translate(71.4409,129.5513)"><path
           d="m 0,0 10.505,-7 -12.741,-6.077 -7.055,3.373"
           style="fill:none;stroke:#000000;stroke-width:1.7;stroke-linecap:butt;stroke-linejoin:miter;stroke-miterlimit:4;stroke-dasharray:none;stroke-opacity:1"
           id="path591" /></g><g
         id="g593"
         transform="translate(60.1392,133.5513)"><path
           d="M 0,0 11.01,-1"
           style="fill:none;stroke:#000000;stroke-width:1.7;stroke-linecap:butt;stroke-linejoin:miter;stroke-miterlimit:4;stroke-dasharray:none;stroke-opacity:1"
           id="path595" /></g></g></g></svg>
