<?xml version="1.0" encoding="UTF-8" standalone="no"?>
<!-- Created with Inkscape (http://www.inkscape.org/) -->

<svg
   version="1.1"
   id="svg25"
   xml:space="preserve"
   width="273.94235"
   height="190.46245"
   viewBox="0 0 273.94235 190.46245"
   sodipodi:docname="locked-chain.svg"
   inkscape:version="1.1.2 (0a00cf5339, 2022-02-04)"
   xmlns:inkscape="http://www.inkscape.org/namespaces/inkscape"
   xmlns:sodipodi="http://sodipodi.sourceforge.net/DTD/sodipodi-0.dtd"
   xmlns="http://www.w3.org/2000/svg"
   xmlns:svg="http://www.w3.org/2000/svg"><defs
     id="defs29"><clipPath
       clipPathUnits="userSpaceOnUse"
       id="clipPath41"><path
         d="M 0,566.929 H 1360.63 V 0 H 0 Z"
         id="path39" /></clipPath><clipPath
       clipPathUnits="userSpaceOnUse"
       id="clipPath185"><path
         d="M 0,0 H 1360.63 V 566.929 H 0 Z"
         id="path183" /></clipPath><clipPath
       clipPathUnits="userSpaceOnUse"
       id="clipPath253"><path
         d="M 0,0 H 1360.63 V 566.929 H 0 Z"
         id="path251" /></clipPath><clipPath
       clipPathUnits="userSpaceOnUse"
       id="clipPath265"><path
         d="m 170.507,126.578 c 0,-16.832 13.645,-30.477 30.476,-30.477 v 0 c 16.831,0 30.476,13.645 30.476,30.477 v 0 c 0,16.832 -13.645,30.476 -30.476,30.476 v 0 c -16.831,0 -30.476,-13.644 -30.476,-30.476"
         id="path263" /></clipPath><clipPath
       clipPathUnits="userSpaceOnUse"
       id="clipPath413"><path
         d="M 0,0 H 1360.63 V 566.929 H 0 Z"
         id="path411" /></clipPath><clipPath
       clipPathUnits="userSpaceOnUse"
       id="clipPath425"><path
         d="m 254.318,92.073 h 48.803 v 48.803 h -48.803 z"
         id="path423" /></clipPath><clipPath
       clipPathUnits="userSpaceOnUse"
       id="clipPath437"><path
         d="M 0,0 H 1360.63 V 566.929 H 0 Z"
         id="path435" /></clipPath><clipPath
       clipPathUnits="userSpaceOnUse"
       id="clipPath449"><path
         d="m 361.939,126.533 c 0,-16.807 13.625,-30.432 30.432,-30.432 v 0 c 16.808,0 30.433,13.625 30.433,30.432 v 0 c 0,16.807 -13.625,30.432 -30.433,30.432 v 0 c -16.807,0 -30.432,-13.625 -30.432,-30.432"
         id="path447" /></clipPath><clipPath
       clipPathUnits="userSpaceOnUse"
       id="clipPath557"><path
         d="M 0,0 H 1360.63 V 566.929 H 0 Z"
         id="path555" /></clipPath><clipPath
       clipPathUnits="userSpaceOnUse"
       id="clipPath569"><path
         d="m 49.989,92.073 h 48.803 v 48.803 H 49.989 Z"
         id="path567" /></clipPath><clipPath
       clipPathUnits="userSpaceOnUse"
       id="clipPath585"><path
         d="M 0,0 H 1360.63 V 566.929 H 0 Z"
         id="path583" /></clipPath><clipPath
       clipPathUnits="userSpaceOnUse"
       id="clipPath753"><path
         d="M 0,0 H 1360.63 V 566.929 H 0 Z"
         id="path751" /></clipPath><clipPath
       clipPathUnits="userSpaceOnUse"
       id="clipPath761"><path
         d="M 711.315,202.609 H 1021.97 V 116.982 H 711.315 Z"
         id="path759" /></clipPath><clipPath
       clipPathUnits="userSpaceOnUse"
       id="clipPath775"><path
         d="M 711.315,285.501 H 1021.97 V 199.874 H 711.315 Z"
         id="path773" /></clipPath><linearGradient
       x1="0"
       y1="0"
       x2="1"
       y2="0"
       gradientUnits="userSpaceOnUse"
       gradientTransform="matrix(0,42.658291,42.658291,0,1108.7637,122.99878)"
       spreadMethod="pad"
       id="linearGradient939"><stop
         style="stop-opacity:1;stop-color:#64676c"
         offset="0"
         id="stop933" /><stop
         style="stop-opacity:1;stop-color:#a18873"
         offset="0.987909"
         id="stop935" /><stop
         style="stop-opacity:1;stop-color:#a18873"
         offset="1"
         id="stop937" /></linearGradient><clipPath
       clipPathUnits="userSpaceOnUse"
       id="clipPath997"><path
         d="M 0,0 H 1360.63 V 566.929 H 0 Z"
         id="path995" /></clipPath><clipPath
       clipPathUnits="userSpaceOnUse"
       id="clipPath1017"><path
         d="M 0,0 H 1360.63 V 566.929 H 0 Z"
         id="path1015" /></clipPath><clipPath
       clipPathUnits="userSpaceOnUse"
       id="clipPath1029"><path
         d="m 163.744,350.197 c 0,-9.286 7.529,-16.814 16.815,-16.814 v 0 c 9.286,0 16.815,7.528 16.815,16.814 v 0 c 0,9.286 -7.529,16.815 -16.815,16.815 v 0 c -9.286,0 -16.815,-7.529 -16.815,-16.815"
         id="path1027" /></clipPath><clipPath
       clipPathUnits="userSpaceOnUse"
       id="clipPath1043"><path
         d="M 0,0 H 1360.63 V 566.929 H 0 Z"
         id="path1041" /></clipPath><clipPath
       clipPathUnits="userSpaceOnUse"
       id="clipPath1095"><path
         d="m 164.119,309.648 c 0,-9.287 7.529,-16.814 16.815,-16.814 v 0 c 9.286,0 16.815,7.527 16.815,16.814 v 0 c 0,9.286 -7.529,16.814 -16.815,16.814 v 0 c -9.286,0 -16.815,-7.528 -16.815,-16.814"
         id="path1093" /></clipPath><clipPath
       clipPathUnits="userSpaceOnUse"
       id="clipPath1109"><path
         d="M 0,0 H 1360.63 V 566.929 H 0 Z"
         id="path1107" /></clipPath><clipPath
       clipPathUnits="userSpaceOnUse"
       id="clipPath1145"><path
         d="M 0,0 H 1360.63 V 566.929 H 0 Z"
         id="path1143" /></clipPath><clipPath
       clipPathUnits="userSpaceOnUse"
       id="clipPath1173"><path
         d="M 0,0 H 1360.63 V 566.929 H 0 Z"
         id="path1171" /></clipPath><clipPath
       clipPathUnits="userSpaceOnUse"
       id="clipPath1187"><path
         d="M 0,0 H 1360.63 V 566.929 H 0 Z"
         id="path1185" /></clipPath><clipPath
       clipPathUnits="userSpaceOnUse"
       id="clipPath185-3"><path
         d="M 0,0 H 1360.63 V 566.929 H 0 Z"
         id="path183-6" /></clipPath><clipPath
       clipPathUnits="userSpaceOnUse"
       id="clipPath1173-0"><path
         d="M 0,0 H 1360.63 V 566.929 H 0 Z"
         id="path1171-6" /></clipPath><clipPath
       clipPathUnits="userSpaceOnUse"
       id="clipPath1187-2"><path
         d="M 0,0 H 1360.63 V 566.929 H 0 Z"
         id="path1185-6" /></clipPath></defs><sodipodi:namedview
     id="namedview27"
     pagecolor="#ffffff"
     bordercolor="#666666"
     borderopacity="1.0"
     inkscape:pageshadow="2"
     inkscape:pageopacity="0.0"
     inkscape:pagecheckerboard="0"
     showgrid="false"
     inkscape:zoom="1.4795595"
     inkscape:cx="80.767284"
     inkscape:cy="80.767284"
     inkscape:window-width="1850"
     inkscape:window-height="1016"
     inkscape:window-x="70"
     inkscape:window-y="27"
     inkscape:window-maximized="1"
     inkscape:current-layer="g31" /><g
     id="g31"
     inkscape:groupmode="layer"
     inkscape:label="Brochura Hallura 24x20"
     transform="matrix(1.3333333,0,0,-1.3333333,-210.42952,441.55518)"><g
       id="g2389"
       transform="translate(-58.707454,-63.996594)"><path
         d="m 332.462,305.66 h 2.343 v 5.624 h -2.343 z"
         style="fill:#db7361;fill-opacity:1;fill-rule:nonzero;stroke:none"
         id="path123" /><g
         id="g125"
         transform="translate(332.4624,305.6604)"><path
           d="m 0,0 v -6.754 l 2.343,1.13 V 0 Z"
           style="fill:#89371d;fill-opacity:1;fill-rule:nonzero;stroke:none"
           id="path127" /></g><path
         d="m 376.877,310.383 h 2.343 v 5.624 h -2.343 z"
         style="fill:#db7361;fill-opacity:1;fill-rule:nonzero;stroke:none"
         id="path129" /><g
         id="g131"
         transform="translate(376.8773,310.3828)"><path
           d="m 0,0 -0.493,-4.476 2.709,-2 L 2.343,0 Z"
           style="fill:#89371d;fill-opacity:1;fill-rule:nonzero;stroke:none"
           id="path133" /></g><g
         id="g135"
         transform="translate(385.8203,332.5273)"><path
           d="M 0,0 -1.327,8.378 -4.29,7.909 -2.963,-1.621 Z"
           style="fill:#f19c9a;fill-opacity:1;fill-rule:nonzero;stroke:none"
           id="path137" /></g><g
         id="g139"
         transform="translate(384.4933,340.9058)"><path
           d="M 0,0 -0.918,6.571 -4.29,7.909 -2.963,-0.469 Z"
           style="fill:#89371d;fill-opacity:1;fill-rule:nonzero;stroke:none"
           id="path141" /></g><path
         d="m 366.86,355.829 h 2.343 v 5.253 h -2.343 z"
         style="fill:#db7361;fill-opacity:1;fill-rule:nonzero;stroke:none"
         id="path143" /><path
         d="m 366.86,350.576 h 2.343 v 5.253 h -2.343 z"
         style="fill:#89371d;fill-opacity:1;fill-rule:nonzero;stroke:none"
         id="path145" /><g
         id="g147"
         transform="translate(347.4515,358.8616)"><path
           d="m 0,0 -3.799,-5.85 1.965,-1.276 3.799,5.85 z"
           style="fill:#f19c9a;fill-opacity:1;fill-rule:nonzero;stroke:none"
           id="path149" /></g><g
         id="g151"
         transform="translate(343.6526,353.0112)"><path
           d="m 0,0 -3.799,-5.85 2.531,-1.254 3.233,5.828 z"
           style="fill:#89371d;fill-opacity:1;fill-rule:nonzero;stroke:none"
           id="path153" /></g><path
         d="m 293.203,358.031 h 2.343 v 5.253 h -2.343 z"
         style="fill:#db7361;fill-opacity:1;fill-rule:nonzero;stroke:none"
         id="path155" /><path
         d="m 293.203,352.778 h 2.343 v 5.253 h -2.343 z"
         style="fill:#89371d;fill-opacity:1;fill-rule:nonzero;stroke:none"
         id="path157" /><path
         d="m 306.203,388.284 h 2.343 v 6 h -2.343 z"
         style="fill:#f19c9a;fill-opacity:1;fill-rule:nonzero;stroke:none"
         id="path159" /><path
         d="m 306.203,382.284 h 2.343 v 6 h -2.343 z"
         style="fill:#89371d;fill-opacity:1;fill-rule:nonzero;stroke:none"
         id="path161" /><g
         id="g163"
         transform="translate(285.4175,330.3269)"><path
           d="m 0,0 -6.879,-5.184 1.41,-1.871 6.879,5.184 z"
           style="fill:#db7361;fill-opacity:1;fill-rule:nonzero;stroke:none"
           id="path165" /></g><g
         id="g167"
         transform="translate(278.5383,325.1431)"><path
           d="m 0,0 -6.879,-5.184 1.41,-1.871 6.879,5.184 z"
           style="fill:#89371d;fill-opacity:1;fill-rule:nonzero;stroke:none"
           id="path169" /></g><g
         id="g171"
         transform="translate(312.2032,328.033)"><path
           d="M 0,0 3.383,7.779 1.513,8.593 -1.87,0.813 Z"
           style="fill:#db7361;fill-opacity:1;fill-rule:nonzero;stroke:none"
           id="path173" /></g><g
         id="g175"
         transform="translate(315.5859,335.8123)"><path
           d="M 0,0 3.383,7.779 1.513,8.593 -1.87,0.813 Z"
           style="fill:#89371d;fill-opacity:1;fill-rule:nonzero;stroke:none"
           id="path177" /></g><g
         id="g179"><g
           id="g181"
           clip-path="url(#clipPath185-3)"><g
             id="g187"
             transform="translate(269.2032,324.2844)"><path
               d="m 0,0 c 0,0 10,-20.545 31,-19 21,1.545 30.765,8 50,8 30,0 48,-28 48,-28"
               style="fill:none;stroke:#8fa4d5;stroke-width:1.5;stroke-linecap:butt;stroke-linejoin:miter;stroke-miterlimit:4;stroke-dasharray:none;stroke-opacity:1"
               id="path189" /></g><g
             id="g191"
             transform="translate(296.2032,288.2844)"><path
               d="m 0,0 c 0,0 29.935,9.25 41,12 18,4.474 39,-1 49,-14 10,-13 8,-11 8,-11"
               style="fill:none;stroke:#8fa4d5;stroke-width:1.5;stroke-linecap:butt;stroke-linejoin:miter;stroke-miterlimit:4;stroke-dasharray:none;stroke-opacity:1"
               id="path193" /></g><g
             id="g195"
             transform="translate(383.2032,279.2844)"><path
               d="M 0,0 C 0,0 -7,-9 -18,-3 -29,3 -42,19 -59,13 -76,7 -86.683,-9.98 -103.054,2.686 c -20,15.474 6,37.67 6,37.67"
               style="fill:none;stroke:#8fa4d5;stroke-width:1.5;stroke-linecap:butt;stroke-linejoin:miter;stroke-miterlimit:4;stroke-dasharray:none;stroke-opacity:1"
               id="path197" /></g><g
             id="g199"
             transform="translate(271.2032,258.5286)"><path
               d="m 0,0 c 0,0 28,-11 44,4 16,15 5.92,43.756 -8,54.256 -13.92,10.5 -40.716,17.5 -38.45,40.5 0,0 1.45,8 4.45,12"
               style="fill:none;stroke:#8fa4d5;stroke-width:1.5;stroke-linecap:butt;stroke-linejoin:miter;stroke-miterlimit:4;stroke-dasharray:none;stroke-opacity:1"
               id="path201" /></g><g
             id="g203"
             transform="translate(256.2032,375.2844)"><path
               d="m 0,0 c 0,0 6,-17 26,-9 20,8 23,12 36,2 13,-10 17,-28 43,-23 26,5 27,10 27,10"
               style="fill:none;stroke:#8fa4d5;stroke-width:1.5;stroke-linecap:butt;stroke-linejoin:miter;stroke-miterlimit:4;stroke-dasharray:none;stroke-opacity:1"
               id="path205" /></g><g
             id="g207"
             transform="translate(280.2032,373.2844)"><path
               d="M 0,0 C 0,0 28,18 39,3 50,-12 58.61,-34 77.305,-43 96,-52 103,-40.64 114,-35 c 11,5.64 17,5.64 17,5.64"
               style="fill:none;stroke:#8fa4d5;stroke-width:1.5;stroke-linecap:butt;stroke-linejoin:miter;stroke-miterlimit:4;stroke-dasharray:none;stroke-opacity:1"
               id="path209" /></g><g
             id="g211"
             transform="translate(337.2032,391.2844)"><path
               d="m 0,0 c 0,0 2,-40 32,-30 30,10 35,6 44,-8 9,-14 8,-16 8,-16"
               style="fill:none;stroke:#8fa4d5;stroke-width:1.5;stroke-linecap:butt;stroke-linejoin:miter;stroke-miterlimit:4;stroke-dasharray:none;stroke-opacity:1"
               id="path213" /></g><g
             id="g215"
             transform="translate(278.2032,390.2844)"><path
               d="m 0,0 c 0,0 37.6,14.172 49.6,-10 12,-24.172 34.4,-29 43.4,-30 9,-1 37,-7.956 40,-20 3,-12.044 0.485,-15 0.485,-15"
               style="fill:none;stroke:#8fa4d5;stroke-width:1.5;stroke-linecap:butt;stroke-linejoin:miter;stroke-miterlimit:4;stroke-dasharray:none;stroke-opacity:1"
               id="path217" /></g><g
             id="g219"
             transform="translate(257.2032,348.2844)"><path
               d="M 0,0 C 0,0 28,15 39,15 50,15 57.927,1.617 63.991,-1.441 74,-6.49 85,-6 85,-6"
               style="fill:none;stroke:#8fa4d5;stroke-width:1.5;stroke-linecap:butt;stroke-linejoin:miter;stroke-miterlimit:4;stroke-dasharray:none;stroke-opacity:1"
               id="path221" /></g><g
             id="g223"
             transform="translate(262.6032,335.2844)"><path
               d="M 0,0 C 0,0 23.6,20.01 37.6,17.505 51.6,15 76.6,-9.5 88.6,-14 c 12,-4.5 21,-9.308 35,-3.044 14,6.263 16,10.044 16,10.044"
               style="fill:none;stroke:#8fa4d5;stroke-width:1.5;stroke-linecap:butt;stroke-linejoin:miter;stroke-miterlimit:4;stroke-dasharray:none;stroke-opacity:1"
               id="path225" /></g><g
             id="g227"
             transform="translate(285.2032,343.2844)"><path
               d="M 0,0 C 0,0 -0.6,-14 27,-15 54.6,-16 73,-29.924 69,-40.962 65,-52 43.002,-80.904 61.293,-89.395 c 15.3,-7.103 25.317,33.081 25.317,33.081"
               style="fill:none;stroke:#8fa4d5;stroke-width:1.5;stroke-linecap:butt;stroke-linejoin:miter;stroke-miterlimit:4;stroke-dasharray:none;stroke-opacity:1"
               id="path229" /></g></g></g><path
         d="m 231.363,325.157 h 17.57 v 9.752 h -17.57 z"
         style="fill:#db7361;fill-opacity:1;fill-rule:nonzero;stroke:none"
         id="path1165" /><g
         id="g1167"><g
           id="g1169"
           clip-path="url(#clipPath1173-0)"><g
             id="g1175"
             transform="translate(241.0496,330.0327)"><path
               d="m 0,0 c 0,2.047 -1.659,3.705 -3.705,3.705 -1.718,0 -3.098,-1.193 -3.518,-2.779 h -6.819 v -1.852 h 6.819 c 0.42,-1.586 1.8,-2.779 3.518,-2.779 C -1.659,-3.705 0,-2.046 0,0"
               style="fill:#89371d;fill-opacity:1;fill-rule:nonzero;stroke:none"
               id="path1177" /></g></g></g><path
         d="m 217.354,325.157 h 14.008 v 9.752 h -14.008 z"
         style="fill:#89371d;fill-opacity:1;fill-rule:nonzero;stroke:none"
         id="path1179" /><g
         id="g1181"><g
           id="g1183"
           clip-path="url(#clipPath1187-2)"><g
             id="g1189"
             transform="translate(220.2436,317.7647)"><path
               d="m 0,0 c -1.889,0 -3.314,1.425 -3.314,3.314 v 18.327 c 0,1.889 1.425,3.313 3.314,3.313 h 0.916 v 6.555 c 0,3.165 1.219,6.126 3.432,8.34 2.214,2.213 5.175,3.432 8.34,3.432 3.164,0 6.126,-1.219 8.34,-3.432 2.213,-2.214 3.432,-5.175 3.432,-8.34 v -6.555 h 0.916 c 1.889,0 3.313,-1.424 3.313,-3.313 V 3.314 C 28.689,1.425 27.265,0 25.376,0 Z m 0,23.966 c -1.347,0 -2.325,-0.978 -2.325,-2.325 V 3.314 C -2.325,1.966 -1.347,0.988 0,0.988 h 25.376 c 1.347,0 2.325,0.978 2.325,2.326 v 18.327 c 0,1.347 -0.978,2.325 -2.325,2.325 z m 12.688,18.327 c -2.904,0 -5.618,-1.115 -7.644,-3.141 -2.025,-2.025 -3.14,-4.739 -3.14,-7.643 v -6.555 h 21.568 v 6.555 c 0,2.904 -1.116,5.618 -3.141,7.643 -2.025,2.026 -4.739,3.141 -7.643,3.141"
               style="fill:#8a7053;fill-opacity:1;fill-rule:nonzero;stroke:none"
               id="path1191" /></g><g
             id="g1193"
             transform="translate(220.2436,317.7647)"><path
               d="m 0,0 c -1.889,0 -3.314,1.425 -3.314,3.314 v 18.327 c 0,1.889 1.425,3.313 3.314,3.313 h 0.916 v 6.555 c 0,3.165 1.219,6.126 3.432,8.34 2.214,2.213 5.175,3.432 8.34,3.432 3.164,0 6.126,-1.219 8.34,-3.432 2.213,-2.214 3.432,-5.175 3.432,-8.34 v -6.555 h 0.916 c 1.889,0 3.313,-1.424 3.313,-3.313 V 3.314 C 28.689,1.425 27.265,0 25.376,0 Z m 0,23.966 c -1.347,0 -2.325,-0.978 -2.325,-2.325 V 3.314 C -2.325,1.966 -1.347,0.988 0,0.988 h 25.376 c 1.347,0 2.325,0.978 2.325,2.326 v 18.327 c 0,1.347 -0.978,2.325 -2.325,2.325 z m 12.688,18.327 c -2.904,0 -5.618,-1.115 -7.644,-3.141 -2.025,-2.025 -3.14,-4.739 -3.14,-7.643 v -6.555 h 21.568 v 6.555 c 0,2.904 -1.116,5.618 -3.141,7.643 -2.025,2.026 -4.739,3.141 -7.643,3.141 z"
               style="fill:none;stroke:#000000;stroke-width:0.8;stroke-linecap:butt;stroke-linejoin:miter;stroke-miterlimit:10;stroke-dasharray:none;stroke-opacity:1"
               id="path1195" /></g></g></g></g></g></svg>
