<?xml version="1.0" encoding="UTF-8" standalone="no"?>
<!-- Created with Inkscape (http://www.inkscape.org/) -->

<svg
   version="1.1"
   id="svg25"
   xml:space="preserve"
   width="273.94235"
   height="190.46245"
   viewBox="0 0 181.79686 150.20195"
   sodipodi:docname="unlocked-chain.svg"
   inkscape:version="1.1.2 (0a00cf5339, 2022-02-04)"
   xmlns:inkscape="http://www.inkscape.org/namespaces/inkscape"
   xmlns:sodipodi="http://sodipodi.sourceforge.net/DTD/sodipodi-0.dtd"
   xmlns="http://www.w3.org/2000/svg"
   xmlns:svg="http://www.w3.org/2000/svg"><defs
     id="defs29"><clipPath
       clipPathUnits="userSpaceOnUse"
       id="clipPath41"><path
         d="M 0,566.929 H 1360.63 V 0 H 0 Z"
         id="path39" /></clipPath><clipPath
       clipPathUnits="userSpaceOnUse"
       id="clipPath185"><path
         d="M 0,0 H 1360.63 V 566.929 H 0 Z"
         id="path183" /></clipPath><clipPath
       clipPathUnits="userSpaceOnUse"
       id="clipPath253"><path
         d="M 0,0 H 1360.63 V 566.929 H 0 Z"
         id="path251" /></clipPath><clipPath
       clipPathUnits="userSpaceOnUse"
       id="clipPath265"><path
         d="m 170.507,126.578 c 0,-16.832 13.645,-30.477 30.476,-30.477 v 0 c 16.831,0 30.476,13.645 30.476,30.477 v 0 c 0,16.832 -13.645,30.476 -30.476,30.476 v 0 c -16.831,0 -30.476,-13.644 -30.476,-30.476"
         id="path263" /></clipPath><clipPath
       clipPathUnits="userSpaceOnUse"
       id="clipPath413"><path
         d="M 0,0 H 1360.63 V 566.929 H 0 Z"
         id="path411" /></clipPath><clipPath
       clipPathUnits="userSpaceOnUse"
       id="clipPath425"><path
         d="m 254.318,92.073 h 48.803 v 48.803 h -48.803 z"
         id="path423" /></clipPath><clipPath
       clipPathUnits="userSpaceOnUse"
       id="clipPath437"><path
         d="M 0,0 H 1360.63 V 566.929 H 0 Z"
         id="path435" /></clipPath><clipPath
       clipPathUnits="userSpaceOnUse"
       id="clipPath449"><path
         d="m 361.939,126.533 c 0,-16.807 13.625,-30.432 30.432,-30.432 v 0 c 16.808,0 30.433,13.625 30.433,30.432 v 0 c 0,16.807 -13.625,30.432 -30.433,30.432 v 0 c -16.807,0 -30.432,-13.625 -30.432,-30.432"
         id="path447" /></clipPath><clipPath
       clipPathUnits="userSpaceOnUse"
       id="clipPath557"><path
         d="M 0,0 H 1360.63 V 566.929 H 0 Z"
         id="path555" /></clipPath><clipPath
       clipPathUnits="userSpaceOnUse"
       id="clipPath569"><path
         d="m 49.989,92.073 h 48.803 v 48.803 H 49.989 Z"
         id="path567" /></clipPath><clipPath
       clipPathUnits="userSpaceOnUse"
       id="clipPath585"><path
         d="M 0,0 H 1360.63 V 566.929 H 0 Z"
         id="path583" /></clipPath><clipPath
       clipPathUnits="userSpaceOnUse"
       id="clipPath753"><path
         d="M 0,0 H 1360.63 V 566.929 H 0 Z"
         id="path751" /></clipPath><clipPath
       clipPathUnits="userSpaceOnUse"
       id="clipPath761"><path
         d="M 711.315,202.609 H 1021.97 V 116.982 H 711.315 Z"
         id="path759" /></clipPath><clipPath
       clipPathUnits="userSpaceOnUse"
       id="clipPath775"><path
         d="M 711.315,285.501 H 1021.97 V 199.874 H 711.315 Z"
         id="path773" /></clipPath><linearGradient
       x1="0"
       y1="0"
       x2="1"
       y2="0"
       gradientUnits="userSpaceOnUse"
       gradientTransform="matrix(0,42.658291,42.658291,0,1108.7637,122.99878)"
       spreadMethod="pad"
       id="linearGradient939"><stop
         style="stop-opacity:1;stop-color:#64676c"
         offset="0"
         id="stop933" /><stop
         style="stop-opacity:1;stop-color:#a18873"
         offset="0.987909"
         id="stop935" /><stop
         style="stop-opacity:1;stop-color:#a18873"
         offset="1"
         id="stop937" /></linearGradient><clipPath
       clipPathUnits="userSpaceOnUse"
       id="clipPath997"><path
         d="M 0,0 H 1360.63 V 566.929 H 0 Z"
         id="path995" /></clipPath><clipPath
       clipPathUnits="userSpaceOnUse"
       id="clipPath1017"><path
         d="M 0,0 H 1360.63 V 566.929 H 0 Z"
         id="path1015" /></clipPath><clipPath
       clipPathUnits="userSpaceOnUse"
       id="clipPath1029"><path
         d="m 163.744,350.197 c 0,-9.286 7.529,-16.814 16.815,-16.814 v 0 c 9.286,0 16.815,7.528 16.815,16.814 v 0 c 0,9.286 -7.529,16.815 -16.815,16.815 v 0 c -9.286,0 -16.815,-7.529 -16.815,-16.815"
         id="path1027" /></clipPath><clipPath
       clipPathUnits="userSpaceOnUse"
       id="clipPath1043"><path
         d="M 0,0 H 1360.63 V 566.929 H 0 Z"
         id="path1041" /></clipPath><clipPath
       clipPathUnits="userSpaceOnUse"
       id="clipPath1095"><path
         d="m 164.119,309.648 c 0,-9.287 7.529,-16.814 16.815,-16.814 v 0 c 9.286,0 16.815,7.527 16.815,16.814 v 0 c 0,9.286 -7.529,16.814 -16.815,16.814 v 0 c -9.286,0 -16.815,-7.528 -16.815,-16.814"
         id="path1093" /></clipPath><clipPath
       clipPathUnits="userSpaceOnUse"
       id="clipPath1109"><path
         d="M 0,0 H 1360.63 V 566.929 H 0 Z"
         id="path1107" /></clipPath><clipPath
       clipPathUnits="userSpaceOnUse"
       id="clipPath1145"><path
         d="M 0,0 H 1360.63 V 566.929 H 0 Z"
         id="path1143" /></clipPath><clipPath
       clipPathUnits="userSpaceOnUse"
       id="clipPath1173"><path
         d="M 0,0 H 1360.63 V 566.929 H 0 Z"
         id="path1171" /></clipPath><clipPath
       clipPathUnits="userSpaceOnUse"
       id="clipPath1187"><path
         d="M 0,0 H 1360.63 V 566.929 H 0 Z"
         id="path1185" /></clipPath><clipPath
       clipPathUnits="userSpaceOnUse"
       id="clipPath997-3"><path
         d="M 0,0 H 1360.63 V 566.929 H 0 Z"
         id="path995-6" /></clipPath><clipPath
       clipPathUnits="userSpaceOnUse"
       id="clipPath1017-7"><path
         d="M 0,0 H 1360.63 V 566.929 H 0 Z"
         id="path1015-5" /></clipPath><clipPath
       clipPathUnits="userSpaceOnUse"
       id="clipPath1029-3"><path
         d="m 163.744,350.197 c 0,-9.286 7.529,-16.814 16.815,-16.814 v 0 c 9.286,0 16.815,7.528 16.815,16.814 v 0 c 0,9.286 -7.529,16.815 -16.815,16.815 v 0 c -9.286,0 -16.815,-7.529 -16.815,-16.815"
         id="path1027-5" /></clipPath><clipPath
       clipPathUnits="userSpaceOnUse"
       id="clipPath1043-6"><path
         d="M 0,0 H 1360.63 V 566.929 H 0 Z"
         id="path1041-2" /></clipPath><clipPath
       clipPathUnits="userSpaceOnUse"
       id="clipPath1095-9"><path
         d="m 164.119,309.648 c 0,-9.287 7.529,-16.814 16.815,-16.814 v 0 c 9.286,0 16.815,7.527 16.815,16.814 v 0 c 0,9.286 -7.529,16.814 -16.815,16.814 v 0 c -9.286,0 -16.815,-7.528 -16.815,-16.814"
         id="path1093-1" /></clipPath><clipPath
       clipPathUnits="userSpaceOnUse"
       id="clipPath1109-2"><path
         d="M 0,0 H 1360.63 V 566.929 H 0 Z"
         id="path1107-7" /></clipPath><clipPath
       clipPathUnits="userSpaceOnUse"
       id="clipPath1145-0"><path
         d="M 0,0 H 1360.63 V 566.929 H 0 Z"
         id="path1143-9" /></clipPath></defs><sodipodi:namedview
     id="namedview27"
     pagecolor="#ffffff"
     bordercolor="#666666"
     borderopacity="1.0"
     inkscape:pageshadow="2"
     inkscape:pageopacity="0.0"
     inkscape:pagecheckerboard="0"
     showgrid="false"
     inkscape:zoom="1.4795595"
     inkscape:cx="203.77687"
     inkscape:cy="143.62383"
     inkscape:window-width="1850"
     inkscape:window-height="1016"
     inkscape:window-x="70"
     inkscape:window-y="27"
     inkscape:window-maximized="1"
     inkscape:current-layer="g31" /><g
     id="g31"
     inkscape:groupmode="layer"
     inkscape:label="Brochura Hallura 24x20"
     transform="matrix(1.3333333,0,0,-1.3333333,-138.8997,540.37925)"><g
       id="g1447"
       transform="translate(42.273626,10.87865)"><g
         id="g983"
         transform="translate(84.6561,394.4058)"><path
           d="M 0,0 -0.709,-9 H 1.709 L 1,0 Z"
           style="fill:#db7361;fill-opacity:1;fill-rule:nonzero;stroke:none"
           id="path985" /></g><g
         id="g987"
         transform="translate(124.8558,391.5464)"><path
           d="M 0,0 2.412,-7.282 4.684,-6.456 0.94,0.342 Z"
           style="fill:#db7361;fill-opacity:1;fill-rule:nonzero;stroke:none"
           id="path989" /></g><g
         id="g991"><g
           id="g993"
           clip-path="url(#clipPath997-3)"><g
             id="g999"
             transform="translate(145.9536,385.3922)"><path
               d="M 0,0 C 0,0 -12.756,2.585 -25.6,-3.837 -38.444,-10.259 -46.731,-7.429 -57.84,-1.619 -68.949,4.19 -78.583,1.3 -83.399,-5.443"
               style="fill:none;stroke:#8fa4d5;stroke-width:1.606;stroke-linecap:butt;stroke-linejoin:miter;stroke-miterlimit:4;stroke-dasharray:none;stroke-opacity:1"
               id="path1001" /></g></g></g><g
         id="g1003"
         transform="translate(82.8932,362.0193)"><path
           d="M 0,0 -1.8,8.847 -4.123,8.18 -0.961,-0.276 Z"
           style="fill:#db7361;fill-opacity:1;fill-rule:nonzero;stroke:none"
           id="path1005" /></g><g
         id="g1007"
         transform="translate(132.2172,348.3911)"><path
           d="M 0,0 -2.111,5.479 -4.245,4.344 -0.883,-0.469 Z"
           style="fill:#db7361;fill-opacity:1;fill-rule:nonzero;stroke:none"
           id="path1009" /></g><g
         id="g1011"><g
           id="g1013"
           clip-path="url(#clipPath1017-7)"><g
             id="g1019"
             transform="translate(71.2281,356.5937)"><path
               d="m 0,0 c 0,0 -2.599,8.894 5.16,12.653 7.759,3.759 13.578,0.002 15.783,-7.688 3.599,-12.55 17.911,-22.678 37.74,-7.903 4.868,3.626 8.447,7.621 11.074,11.618"
               style="fill:none;stroke:#8fa4d5;stroke-width:1.606;stroke-linecap:butt;stroke-linejoin:miter;stroke-miterlimit:4;stroke-dasharray:none;stroke-opacity:1"
               id="path1021" /></g></g></g><g
         id="g1023"><g
           id="g1025"
           clip-path="url(#clipPath1029-3)"><path
             d="m 175.575,344.663 h 9.8 v 23.689 h -9.8 z"
             style="fill:#db7361;fill-opacity:1;fill-rule:nonzero;stroke:none"
             id="path1031" /><g
             id="g1033"
             transform="translate(180.4756,354.3982)"><path
               d="m 0,0 c -2.057,0 -3.724,-1.667 -3.724,-3.724 0,-1.726 1.2,-3.113 2.793,-3.535 v -6.852 h 1.862 v 6.852 C 2.524,-6.837 3.724,-5.45 3.724,-3.724 3.724,-1.667 2.056,0 0,0"
               style="fill:#faece7;fill-opacity:1;fill-rule:nonzero;stroke:none"
               id="path1035" /></g></g></g><g
         id="g1037"><g
           id="g1039"
           clip-path="url(#clipPath1043-6)"><g
             id="g1045"
             transform="translate(182.5862,333.5037)"><path
               d="M 0,0 C 8,0.961 14.272,7.541 14.757,15.678"
               style="fill:none;stroke:#000000;stroke-width:1;stroke-linecap:round;stroke-linejoin:round;stroke-miterlimit:4;stroke-dasharray:0, 2.032;stroke-dashoffset:0;stroke-opacity:1"
               id="path1047" /></g><g
             id="g1049"
             transform="translate(197.2525,352.2244)"><path
               d="M 0,0 C -0.961,8 -7.54,14.272 -15.678,14.757"
               style="fill:none;stroke:#000000;stroke-width:1;stroke-linecap:round;stroke-linejoin:round;stroke-miterlimit:4;stroke-dasharray:0, 2.032;stroke-dashoffset:0;stroke-opacity:1"
               id="path1051" /></g><g
             id="g1053"
             transform="translate(178.5318,366.8909)"><path
               d="M 0,0 C -8,-0.961 -14.272,-7.541 -14.757,-15.678"
               style="fill:none;stroke:#000000;stroke-width:1;stroke-linecap:round;stroke-linejoin:round;stroke-miterlimit:4;stroke-dasharray:0, 2.032;stroke-dashoffset:0;stroke-opacity:1"
               id="path1055" /></g><g
             id="g1057"
             transform="translate(163.8655,348.1702)"><path
               d="M 0,0 C 0.961,-8 7.541,-14.272 15.678,-14.757"
               style="fill:none;stroke:#000000;stroke-width:1;stroke-linecap:round;stroke-linejoin:round;stroke-miterlimit:4;stroke-dasharray:0, 2.032;stroke-dashoffset:0;stroke-opacity:1"
               id="path1059" /></g><g
             id="g1061"
             transform="translate(197.3735,350.1973)"><path
               d="m 0,0 v 0 m -16.814,16.814 v 0 M -33.629,0 v 0 m 16.815,-16.814 v 0"
               style="fill:none;stroke:#000000;stroke-width:1;stroke-linecap:round;stroke-linejoin:round;stroke-miterlimit:4;stroke-dasharray:none;stroke-opacity:1"
               id="path1063" /></g></g></g><g
         id="g1065"
         transform="translate(135.6561,350.4058)"><path
           d="M 0,0 H 25"
           style="fill:none;stroke:#000000;stroke-width:1;stroke-linecap:round;stroke-linejoin:round;stroke-miterlimit:4;stroke-dasharray:0, 2;stroke-dashoffset:0;stroke-opacity:1"
           id="path1067" /></g><g
         id="g1069"
         transform="translate(133.6561,350.4058)"><path
           d="M 0,0 V 0 M 28,0 V 0"
           style="fill:none;stroke:#000000;stroke-width:1;stroke-linecap:round;stroke-linejoin:round;stroke-miterlimit:4;stroke-dasharray:none;stroke-opacity:1"
           id="path1071" /></g><g
         id="g1073"
         transform="translate(90.9199,313.0554)"><path
           d="M 0,0 -1.8,8.847 -4.123,8.18 -0.961,-0.276 Z"
           style="fill:#89371d;fill-opacity:1;fill-rule:nonzero;stroke:none"
           id="path1075" /></g><g
         id="g1077"
         transform="translate(84.5558,291.1296)"><path
           d="M 0,0 1.751,-6.812 3.945,-6.013 0.908,0.331 Z"
           style="fill:#89371d;fill-opacity:1;fill-rule:nonzero;stroke:none"
           id="path1079" /></g><g
         id="g1081"
         transform="translate(135.9559,297.2285)"><path
           d="m 0,0 -2.588,-6.54 2.245,-0.644 1.98,6.209 z"
           style="fill:#89371d;fill-opacity:1;fill-rule:nonzero;stroke:none"
           id="path1083" /></g><g
         id="g1085"
         transform="translate(126.5204,323.6641)"><path
           d="m 0,0 2.872,-5.118 1.89,1.373 -3.98,4.313 z"
           style="fill:#89371d;fill-opacity:1;fill-rule:nonzero;stroke:none"
           id="path1087" /></g><g
         id="g1089"><g
           id="g1091"
           clip-path="url(#clipPath1095-9)"><path
             d="m 185.751,308.544 h -9.8 v -23.689 h 9.8 z"
             style="fill:#89371d;fill-opacity:1;fill-rule:nonzero;stroke:none"
             id="path1097" /><g
             id="g1099"
             transform="translate(180.8506,318.5899)"><path
               d="m 0,0 c -2.057,0 -3.724,-1.667 -3.724,-3.724 0,-1.726 1.2,-3.113 2.793,-3.535 v -6.852 h 1.862 v 6.852 C 2.524,-6.837 3.724,-5.45 3.724,-3.724 3.724,-1.667 2.056,0 0,0"
               style="fill:#89371d;fill-opacity:1;fill-rule:nonzero;stroke:none"
               id="path1101" /></g></g></g><g
         id="g1103"><g
           id="g1105"
           clip-path="url(#clipPath1109-2)"><g
             id="g1111"
             transform="translate(182.9615,292.9543)"><path
               d="M 0,0 C 8,0.961 14.272,7.541 14.757,15.678"
               style="fill:none;stroke:#000000;stroke-width:1;stroke-linecap:round;stroke-linejoin:round;stroke-miterlimit:4;stroke-dasharray:0, 2.032;stroke-dashoffset:0;stroke-opacity:1"
               id="path1113" /></g><g
             id="g1115"
             transform="translate(197.6278,311.675)"><path
               d="M 0,0 C -0.961,8 -7.54,14.272 -15.678,14.757"
               style="fill:none;stroke:#000000;stroke-width:1;stroke-linecap:round;stroke-linejoin:round;stroke-miterlimit:4;stroke-dasharray:0, 2.032;stroke-dashoffset:0;stroke-opacity:1"
               id="path1117" /></g><g
             id="g1119"
             transform="translate(178.9071,326.3416)"><path
               d="M 0,0 C -8,-0.961 -14.272,-7.541 -14.757,-15.678"
               style="fill:none;stroke:#000000;stroke-width:1;stroke-linecap:round;stroke-linejoin:round;stroke-miterlimit:4;stroke-dasharray:0, 2.032;stroke-dashoffset:0;stroke-opacity:1"
               id="path1121" /></g><g
             id="g1123"
             transform="translate(164.2408,307.6208)"><path
               d="M 0,0 C 0.961,-8 7.541,-14.272 15.678,-14.757"
               style="fill:none;stroke:#000000;stroke-width:1;stroke-linecap:round;stroke-linejoin:round;stroke-miterlimit:4;stroke-dasharray:0, 2.032;stroke-dashoffset:0;stroke-opacity:1"
               id="path1125" /></g><g
             id="g1127"
             transform="translate(197.7488,309.6479)"><path
               d="m 0,0 v 0 m -16.814,16.814 v 0 M -33.629,0 v 0 m 16.815,-16.814 v 0"
               style="fill:none;stroke:#000000;stroke-width:1;stroke-linecap:round;stroke-linejoin:round;stroke-miterlimit:4;stroke-dasharray:none;stroke-opacity:1"
               id="path1129" /></g></g></g><g
         id="g1131"
         transform="translate(143.2094,309.8564)"><path
           d="M 0,0 H 17.776"
           style="fill:none;stroke:#000000;stroke-width:1;stroke-linecap:round;stroke-linejoin:round;stroke-miterlimit:4;stroke-dasharray:0, 2.091;stroke-dashoffset:0;stroke-opacity:1"
           id="path1133" /></g><g
         id="g1135"
         transform="translate(141.1181,309.8564)"><path
           d="M 0,0 V 0 M 20.913,0 V 0"
           style="fill:none;stroke:#000000;stroke-width:1;stroke-linecap:round;stroke-linejoin:round;stroke-miterlimit:4;stroke-dasharray:none;stroke-opacity:1"
           id="path1137" /></g><g
         id="g1139"><g
           id="g1141"
           clip-path="url(#clipPath1145-0)"><g
             id="g1147"
             transform="translate(148.203,329.877)"><path
               d="m 0,0 c 0,0 -10.159,2.463 -16.164,-9.032 -6.005,-11.495 -16.68,-2.458 -30.638,1.14 -13.959,3.597 -25.454,-8.53 -25.454,-8.53"
               style="fill:none;stroke:#8fa4d5;stroke-width:1.606;stroke-linecap:butt;stroke-linejoin:miter;stroke-miterlimit:4;stroke-dasharray:none;stroke-opacity:1"
               id="path1149" /></g><g
             id="g1151"
             transform="translate(69.1151,299.698)"><path
               d="m 0,0 c -2.006,-3.802 -2.81,-9.416 3.548,-14.684 7.542,-6.249 18.393,0.751 22.717,5.751 4.325,5 13.825,16.278 31.475,4.251 11.103,-7.567 18.742,-12.693 26.203,-1.643"
               style="fill:none;stroke:#8fa4d5;stroke-width:1.606;stroke-linecap:butt;stroke-linejoin:miter;stroke-miterlimit:4;stroke-dasharray:none;stroke-opacity:1"
               id="path1153" /></g></g></g></g></g></svg>
